<svg xmlns="http://www.w3.org/2000/svg" xmlns:xlink="http://www.w3.org/1999/xlink" viewBox="0 0 30 30" fill="currentColor">
  <path d="M13 3 A 1.0001 1.0001 0 0 0 11.986328 4L6 4 A 1.0001 1.0001 0 1 0 6 6L24 6 A 1.0001 1.0001 0 1 0 24 4L18.013672 4 A 1.0001 1.0001 0 0 0 17 3L13 3 z M 6 8L6 24C6 25.105 6.895 26 8 26L22 26C23.105 26 24 25.105 24 24L24 8L6 8 z M 12 13C12.25575 13 12.511531 13.097469 12.707031 13.292969L15 15.585938L17.292969 13.292969C17.683969 12.901969 18.316031 12.901969 18.707031 13.292969C19.098031 13.683969 19.098031 14.316031 18.707031 14.707031L16.414062 17L18.707031 19.292969C19.098031 19.683969 19.098031 20.316031 18.707031 20.707031C18.512031 20.902031 18.256 21 18 21C17.744 21 17.487969 20.902031 17.292969 20.707031L15 18.414062L12.707031 20.707031C12.512031 20.902031 12.256 21 12 21C11.744 21 11.487969 20.902031 11.292969 20.707031C10.901969 20.316031 10.901969 19.683969 11.292969 19.292969L13.585938 17L11.292969 14.707031C10.901969 14.316031 10.901969 13.683969 11.292969 13.292969C11.488469 13.097469 11.74425 13 12 13 z" />
</svg>