<svg xmlns="http://www.w3.org/2000/svg" width="27.85" height="33.154" viewBox="0 0 27.85 33.154"><defs></defs><path fill="#fff" class="" d="M17.925,0a2.652,2.652,0,1,0,2.652,2.652A2.654,2.654,0,0,0,17.925,0Zm-3.73,4.041A8.22,8.22,0,0,0,9.3,11.936c0,7.294-2.52,9.125-4.02,10.216-.666.482-1.285.93-1.285,1.72,0,2.79,4.165,3.979,13.925,3.979S31.85,26.661,31.85,23.871c0-.79-.619-1.238-1.285-1.72-1.5-1.091-4.02-2.922-4.02-10.216a8.2,8.2,0,0,0-4.89-7.895,3.981,3.981,0,0,1-7.46,0Zm-.249,25.052v.083a3.979,3.979,0,1,0,7.957,0v-.083c-1.248.052-2.575.083-3.979.083S15.195,29.145,13.946,29.093Z" transform="translate(-4)"/></svg>