<svg xmlns="http://www.w3.org/2000/svg" width="25.965" height="24.966" viewBox="0 0 25.965 24.966"><defs><style></style></defs><path class="" d="M12.985,3C6.918,3,2,7.471,2,12.986a9.543,9.543,0,0,0,3.39,7.2A5.556,5.556,0,0,1,3.322,23l0,0a.5.5,0,0,0,.283.954A7.961,7.961,0,0,0,8.5,22.1a11.862,11.862,0,0,0,4.488.878c6.067,0,10.985-4.471,10.985-9.986S19.052,3,12.985,3ZM8.991,9.991H16.98a1,1,0,1,1,0,2H8.991a1,1,0,0,1,0-2Zm0,3.995h5.992a1,1,0,1,1,0,2H8.991a1,1,0,1,1,0-2ZM25.745,15.15a12.642,12.642,0,0,1-11.432,9.758,8.569,8.569,0,0,0,5.662,2.06,8.953,8.953,0,0,0,2.98-.509,7.712,7.712,0,0,0,4.408,1.5A.5.5,0,0,0,27.639,27a5.827,5.827,0,0,1-1.853-2.235,6.353,6.353,0,0,0-.041-9.614Z" transform="translate(-2 -3)"/></svg>