<svg xmlns="http://www.w3.org/2000/svg" width="17.644" height="16.074" viewBox="0 0 17.644 16.074"><defs></defs><path fill="currentColor" d="M18.341,6.713a3.507,3.507,0,0,0-2.243,1l-.039.039s-.011,0-.013,0c-.018.021-.036.043-.052.066s-.036.043-.052.066l-7.9,7.935c-.018.021-.036.043-.052.066a2.069,2.069,0,0,0,2.99,2.859.82.82,0,0,0,.1-.131.94.94,0,0,0,.1-.092l5.915-5.836a.84.84,0,1,0-1.18-1.193l-5.915,5.836a.718.718,0,0,0-.066.092l-.026.013c0,.008-.008.018-.013.026a.71.71,0,0,0-.118.092A.39.39,0,1,1,9.239,17l8.014-8.053c.018-.021.036-.043.052-.066a1.533,1.533,0,0,1,2.125-.118.711.711,0,0,0,.118.092l.013.013a.849.849,0,0,0,.079.092,1.662,1.662,0,0,1-.275,2.2l-.039.039L10.642,20.1a.751.751,0,0,0-.079.066,3.018,3.018,0,0,1-4.145.184,3.035,3.035,0,0,1,.131-4.105c.018-.016.036-.034.052-.052l7.148-7.069a.84.84,0,1,0-1.18-1.194l-7.109,7.03L5.422,15c-.018.021-.036.043-.052.066a4.656,4.656,0,0,0-.144,6.466,4.657,4.657,0,0,0,6.44-.092l.052-.039.013-.013.026-.026V21.35l.052-.052c.018-.021.036-.043.052-.066l8.669-8.853a.833.833,0,0,0,.157-.2,3.226,3.226,0,0,0,.131-4.407c-.021-.018-.043-.036-.066-.052a.928.928,0,0,0-.131-.157A2.989,2.989,0,0,0,18.341,6.713Z" transform="translate(-3.988 -6.709)"/></svg>