<svg xmlns="http://www.w3.org/2000/svg" width="26" height="26" viewBox="0 0 26 26"><defs><style></style></defs><path class="" d="M15,2a1,1,0,0,0-1,1v.172a.985.985,0,0,1-.809.98c-.229.037-.456.08-.68.131a.983.983,0,0,1-1.115-.6l-.066-.156A1,1,0,1,0,9.482,4.3l.066.16A.981.981,0,0,1,9.18,5.67q-.294.183-.574.383A.985.985,0,0,1,7.344,5.93l-.121-.121A1,1,0,0,0,5.809,7.223l.121.121a.985.985,0,0,1,.123,1.262q-.2.281-.383.574a.986.986,0,0,1-1.215.371L4.3,9.484a1,1,0,1,0-.768,1.848l.156.064a.985.985,0,0,1,.6,1.115c-.051.224-.1.451-.133.68A.983.983,0,0,1,3.172,14H3a1,1,0,1,0,0,2h.172a.985.985,0,0,1,.98.809c.037.229.08.456.131.68a.983.983,0,0,1-.6,1.115l-.156.066A1,1,0,0,0,4.3,20.518l.16-.066a.986.986,0,0,1,1.215.369c.122.2.249.388.383.576a.985.985,0,0,1-.123,1.262l-.123.121a1,1,0,0,0,1.414,1.414l.123-.121a.983.983,0,0,1,1.26-.125q.282.2.576.385a.987.987,0,0,1,.371,1.215l-.066.158a1,1,0,1,0,1.848.768l.064-.156a.985.985,0,0,1,1.115-.6c.224.051.451.1.68.133a.979.979,0,0,1,.807.977V27a1,1,0,1,0,2,0v-.172a.985.985,0,0,1,.809-.98c.229-.037.456-.08.68-.131a.983.983,0,0,1,1.115.6l.066.156a1,1,0,1,0,1.848-.766l-.066-.16a.986.986,0,0,1,.369-1.215c.2-.122.388-.249.576-.383a.985.985,0,0,1,1.262.123l.121.123a1,1,0,1,0,1.414-1.414l-.121-.123a.983.983,0,0,1-.125-1.26q.2-.282.385-.576a.987.987,0,0,1,1.215-.371l.158.066a1,1,0,1,0,.768-1.848l-.156-.064a.985.985,0,0,1-.6-1.115c.051-.224.1-.451.133-.68A.979.979,0,0,1,26.828,16H27a1,1,0,1,0,0-2h-.172a.985.985,0,0,1-.98-.809c-.037-.229-.08-.456-.131-.68a.983.983,0,0,1,.6-1.115l.156-.066A1,1,0,1,0,25.7,9.482l-.16.066a.986.986,0,0,1-1.215-.369c-.122-.2-.249-.388-.383-.576a.985.985,0,0,1,.123-1.262l.123-.121a1,1,0,1,0-1.414-1.414l-.121.123a.985.985,0,0,1-1.262.125q-.282-.2-.576-.385a.986.986,0,0,1-.369-1.215l.066-.158a1,1,0,1,0-1.848-.768l-.066.156a.985.985,0,0,1-1.115.6c-.224-.051-.451-.1-.68-.133A.982.982,0,0,1,16,3.172V3A1,1,0,0,0,15,2Zm0,5a8,8,0,0,1,7.932,7h-6.2A2,2,0,0,0,15,13h0L11.9,7.625A7.971,7.971,0,0,1,15,7ZM10.17,8.633,13.27,14a1.983,1.983,0,0,0,0,2l-3.1,5.369a7.979,7.979,0,0,1,0-12.732ZM16.73,16h6.2A8,8,0,0,1,11.9,22.375L15,17h0A2,2,0,0,0,16.73,16Z" transform="translate(-2 -2)"/></svg>