<svg xmlns="http://www.w3.org/2000/svg" width="59.164" height="59.164" viewBox="0 0 59.164 59.164"><defs><style>.acustom{fill:#ede7f6;}.bcustom{fill:#673ab7;}.ccustom{fill:#311b92;}.dcustom{fill:#ffa726;}.ecustom{fill:#ff9800;}.fcustom{fill:#ffb74d;}.gcustom{fill:#424242;}.hcustom{fill:#784719;}</style></defs><g transform="translate(0 0)"><path class="acustom" fill="#ede7f6" d="M33.582,4A29.582,29.582,0,1,0,63.164,33.582,29.582,29.582,0,0,0,33.582,4Z" transform="translate(-4 -4)"/><path class="bcustom" d="M29.7,50.228a28.988,28.988,0,0,0,17.6-5.916C46.415,33.071,35.174,31,35.174,31L29.7,32.183,24.229,31S12.987,33.071,12.1,44.312A28.988,28.988,0,0,0,29.7,50.228Z" transform="translate(-0.119 8.936)"/><path class="ccustom" d="M26.923,39.875a8.7,8.7,0,0,0,8.727-7.839A18.032,18.032,0,0,0,32.691,31a5.809,5.809,0,0,1-5.916,5.769A5.9,5.9,0,0,1,20.858,31,18.032,18.032,0,0,0,17.9,32.035,9.211,9.211,0,0,0,26.923,39.875Z" transform="translate(2.659 8.936)"/><path class="dcustom" d="M39.666,23.219A2.219,2.219,0,1,1,37.447,21a2.275,2.275,0,0,1,2.219,2.219m-19.228,0a2.219,2.219,0,1,0-2.219,2.219,2.275,2.275,0,0,0,2.219-2.219" transform="translate(1.749 4.145)"/><path class="ecustom" d="M25.916,38.833C20,38.833,20,32.916,20,32.916V27H31.833v5.916S31.833,38.833,25.916,38.833Z" transform="translate(3.666 7.019)"/><path class="fcustom" d="M37.707,20.463c0-8.727-20.707-5.621-20.707,0v6.508a10.355,10.355,0,0,0,20.707,0Z" transform="translate(2.228 1.28)"/><path class="gcustom" d="M27.833,11C20.585,11,16,17.36,16,23.129v2.662l2.958,2.958V22.833L32.566,18.4l4.141,4.437v5.916l2.958-2.958V24.608c0-4.733-1.183-10.058-7.1-11.241L31.383,11Z" transform="translate(1.749 -0.646)"/><path class="hcustom" d="M28.875,22.479a1.479,1.479,0,1,1,1.479,1.479,1.4,1.4,0,0,1-1.479-1.479m-8.875,0A1.479,1.479,0,1,0,21.479,21,1.4,1.4,0,0,0,20,22.479" transform="translate(3.666 4.145)"/></g></svg>