<svg xmlns="http://www.w3.org/2000/svg" width="26" height="26" viewBox="0 0 26 26"><defs></defs><path d="M18,2a2,2,0,0,0-1.42,3.406l-.742,2.719A7.413,7.413,0,0,0,9.93,9.563L6.924,7.1A2.5,2.5,0,1,0,5.707,8.688l2.811,2.3a7.476,7.476,0,0,0,.268,9.363L6.264,23.123a2.506,2.506,0,1,0,1.5,1.322l2.5-2.756a7.488,7.488,0,0,0,9.055-.449L23.1,25.393a2,2,0,1,0,1.476-1.346l-3.9-4.293A7.454,7.454,0,0,0,21.6,13.1l3.24-1.473A2,2,0,1,0,24.012,9.8l-3.295,1.5a7.526,7.526,0,0,0-2.975-2.561l.768-2.812A2,2,0,0,0,18,2Zm-4,8h1v1.035c1.719.17,2.878,1.186,2.91,2.627H15.9a1.248,1.248,0,0,0-1.385-1.023c-.764,0-1.266.362-1.266.93,0,.467.378.739,1.277.916l1.1.213c1.686.326,2.443,1.09,2.443,2.445,0,1.636-1.156,2.665-3.076,2.824V21H14V19.971c-1.875-.144-3.043-1.115-3.076-2.633h2.07c.053.621.675,1.018,1.574,1.018.811,0,1.367-.391,1.367-.953,0-.473-.374-.729-1.35-.924l-1.123-.225c-1.562-.3-2.367-1.147-2.367-2.49,0-1.53,1.131-2.566,2.9-2.73Z" transform="translate(-2 -2)"/></svg>