<svg xmlns="http://www.w3.org/2000/svg" width="26" height="26.016" viewBox="0 0 26 26.016"><defs><style></style></defs><path class="" d="M5.163,3.986A1.182,1.182,0,0,0,4,5.184V27.639A2.381,2.381,0,0,0,6.364,30H28.818a1.182,1.182,0,1,0,0-2.364H6.364V5.184a1.182,1.182,0,0,0-1.2-1.2ZM15.818,4a2.364,2.364,0,1,0,2.364,2.364A2.364,2.364,0,0,0,15.818,4ZM9.909,5.184a1.182,1.182,0,1,0,1.182,1.182A1.182,1.182,0,0,0,9.909,5.184Zm11.818,0a1.182,1.182,0,1,0,1.182,1.182A1.182,1.182,0,0,0,21.727,5.184Zm4.727,0a1.182,1.182,0,1,0,1.182,1.182A1.182,1.182,0,0,0,26.454,5.184Zm-5.909,7.091a2.364,2.364,0,1,0,2.364,2.364A2.364,2.364,0,0,0,20.545,12.275ZM9.909,13.457a1.182,1.182,0,1,0,1.182,1.182A1.182,1.182,0,0,0,9.909,13.457Zm4.727,0a1.182,1.182,0,1,0,1.182,1.182A1.182,1.182,0,0,0,14.636,13.457Zm11.818,0a1.182,1.182,0,1,0,1.182,1.182A1.182,1.182,0,0,0,26.454,13.457ZM11.091,20.548a2.364,2.364,0,1,0,2.364,2.364A2.364,2.364,0,0,0,11.091,20.548ZM17,21.73a1.182,1.182,0,1,0,1.182,1.182A1.182,1.182,0,0,0,17,21.73Zm4.727,0a1.182,1.182,0,1,0,1.182,1.182A1.182,1.182,0,0,0,21.727,21.73Zm4.727,0a1.182,1.182,0,1,0,1.182,1.182A1.182,1.182,0,0,0,26.454,21.73Z" transform="translate(-4 -3.986)"/></svg>