<svg xmlns="http://www.w3.org/2000/svg" width="23" height="23" viewBox="0 0 23 23"><defs><style>.a{fill:#fff;}</style></defs><path class="a" d="M13.5,2A11.5,11.5,0,1,0,25,13.5,11.508,11.508,0,0,0,13.5,2Zm0,1A10.5,10.5,0,1,1,3,13.5,10.492,10.492,0,0,1,13.5,3Zm0,1A9.5,9.5,0,1,0,23,13.5,9.511,9.511,0,0,0,13.5,4ZM13,7.5h1a.5.5,0,0,1,.5.5v6.5a.5.5,0,0,1-.5.5H13a.5.5,0,0,1-.5-.5V8A.5.5,0,0,1,13,7.5ZM13,17h1a.5.5,0,0,1,.5.5v1a.5.5,0,0,1-.5.5H13a.5.5,0,0,1-.5-.5v-1A.5.5,0,0,1,13,17Z" transform="translate(-2 -2)"/></svg>