<svg xmlns="http://www.w3.org/2000/svg" xmlns:xlink="http://www.w3.org/1999/xlink" viewBox="0 0 30 30" fill="currentColor">
  <path d="M13 3C6.925 3 2 7.477 2 13C2 15.837518 3.306518 18.39284 5.3945312 20.212891C5.093984 21.190901 4.4689762 22.164269 3.3242188 23.03125C3.3234549 23.031829 3.3230299 23.032625 3.3222656 23.033203 A 0.5 0.5 0 0 0 3.5 24 A 0.5 0.5 0 0 0 3.6054688 23.988281C5.5400885 23.981524 7.1912591 23.156263 8.5058594 22.121094C9.8792065 22.68134 11.397234 23 13 23C19.075 23 24 18.523 24 13C24 7.477 19.075 3 13 3 z M 9 10L17 10C17.552 10 18 10.448 18 11C18 11.552 17.552 12 17 12L9 12C8.448 12 8 11.552 8 11C8 10.448 8.448 10 9 10 z M 9 14L15 14C15.552 14 16 14.448 16 15C16 15.552 15.552 16 15 16L9 16C8.448 16 8 15.552 8 15C8 14.448 8.448 14 9 14 z M 25.777344 15.166016C24.746344 20.357016 20.094078 24.3935 14.330078 24.9375C15.778078 26.2105 17.784 27 20 27C21.056083 27 22.061339 26.815582 22.984375 26.490234C24.211688 27.347591 25.69711 27.983324 27.398438 27.988281 A 0.5 0.5 0 0 0 27.5 28 A 0.5 0.5 0 0 0 27.673828 27.03125C26.75793 26.336176 26.170272 25.57197 25.818359 24.792969C27.167112 23.539939 28 21.857118 28 20C28 18.123 27.151344 16.423016 25.777344 15.166016 z" />
</svg>