<svg xmlns="http://www.w3.org/2000/svg" width="15.355" height="10.237" viewBox="0 0 15.355 10.237"><defs><style>.a{fill:#191919;}</style></defs><path class="a" d="M7.678,5C3.113,5,.164,9.715.111,9.8a.511.511,0,0,0-.028.6l0,0c.009.018,2.484,4.837,7.593,4.837,5.087,0,7.559-4.771,7.589-4.83l.006-.01a.511.511,0,0,0-.027-.6h0C15.191,9.715,12.243,5,7.678,5Zm0,1.536a3.583,3.583,0,1,1-3.583,3.583A3.583,3.583,0,0,1,7.678,6.536Zm0,2.047a1.536,1.536,0,1,0,1.536,1.536A1.536,1.536,0,0,0,7.678,8.583Z" transform="translate(0 -5)"/></svg>