<svg xmlns="http://www.w3.org/2000/svg" width="140.345" height="141.29" viewBox="0 0 140.345 141.29"><defs><style>.a{fill:#f9dbd2;}.b{fill:#fff;}.c{fill:#f1bc19;}.d{fill:#ee3e54;}.e{fill:#fbcd59;}.f{fill:#84a7d7;}.g{fill:#472b29;}.h{fill:#f2df5e;}.i{fill:#6673a7;}</style></defs><path class="a" d="M79.375,12.746a67.342,67.342,0,1,0,67.342,67.342A67.342,67.342,0,0,0,79.375,12.746Z" transform="translate(-8.157 -9.802)"/><path class="b" d="M20.87,75.676a1.593,1.593,0,1,0,1.593,1.593,1.593,1.593,0,0,0-1.593-1.593Zm106.2-44.366a1.23,1.23,0,1,0,1.23,1.23A1.23,1.23,0,0,0,127.068,31.31Z" transform="translate(-2.373 5.02)"/><path class="c" d="M121.943,12.846a1.593,1.593,0,1,0,1.593,1.593,1.593,1.593,0,0,0-1.593-1.593ZM21.365,105.606a1.593,1.593,0,1,0,1.593,1.593A1.593,1.593,0,0,0,21.365,105.606Zm110.363-94.5a7.206,7.206,0,1,0,7.206,7.206,7.206,7.206,0,0,0-7.206-7.206Z" transform="translate(-1.978 -11.109)"/><path class="d" d="M87.535,22.3a3.388,3.388,0,1,0,3.388,3.388A3.388,3.388,0,0,0,87.535,22.3Z" transform="translate(49.421 -2.172)"/><path class="e" d="M130.675,86.75a3.388,3.388,0,1,0,3.388,3.388,3.388,3.388,0,0,0-3.388-3.388ZM17.084,59.646a7.206,7.206,0,1,0,7.206,7.206,7.206,7.206,0,0,0-7.206-7.206Z" transform="translate(-9.878 27.645)"/><path class="d" d="M25.627,85.9a3.388,3.388,0,1,0,3.388,3.388A3.388,3.388,0,0,0,25.627,85.9Z" transform="translate(-0.009 48.61)"/><path class="b" d="M19.655,49a4.57,4.57,0,1,0,4.57,4.57A4.57,4.57,0,0,0,19.655,49Z" transform="translate(-5.721 19.147)"/><path class="f" d="M59.819,99.313a23.52,23.52,0,0,1-3.744-.3C45.6,97.313,37.7,87.83,37.7,76.952V45.062C37.7,34.183,45.6,24.7,56.075,23a23.519,23.519,0,0,1,3.744-.3A21.961,21.961,0,0,1,81.942,44.445V77.568A21.961,21.961,0,0,1,59.819,99.313Zm0-68.091a14.334,14.334,0,0,0-2.991.322A13.5,13.5,0,0,0,46.4,44.814V77.2A13.5,13.5,0,0,0,56.832,90.469a14.334,14.334,0,0,0,2.991.322A13.435,13.435,0,0,0,69.3,86.922a13.037,13.037,0,0,0,3.94-9.352V44.445A13.335,13.335,0,0,0,59.823,31.223Z" transform="translate(12.336 -1.854)"/><path class="g" d="M60.381,22v2.518A20.7,20.7,0,0,1,81.242,45V78.129A20.7,20.7,0,0,1,60.38,98.613a22.274,22.274,0,0,1-3.545-.288A21.07,21.07,0,0,1,39.518,77.51V45.621A21.068,21.068,0,0,1,56.835,24.806a22.274,22.274,0,0,1,3.545-.288l0-2.518m0,70.607A14.6,14.6,0,0,0,75.055,78.127V45A14.6,14.6,0,0,0,60.38,30.525a15.488,15.488,0,0,0-3.253.349A14.767,14.767,0,0,0,45.7,45.372V77.759a14.767,14.767,0,0,0,11.422,14.5,15.488,15.488,0,0,0,3.253.349M60.38,22a24.728,24.728,0,0,0-3.948.32A23.5,23.5,0,0,0,37,45.621V77.51a23.5,23.5,0,0,0,19.432,23.3,24.71,24.71,0,0,0,3.948.32,23.221,23.221,0,0,0,23.38-23V45A23.217,23.217,0,0,0,60.38,22Zm0,68.089a12.882,12.882,0,0,1-2.725-.293,12.228,12.228,0,0,1-9.433-12.039V45.372a12.23,12.23,0,0,1,9.433-12.039,13,13,0,0,1,2.725-.293A12.075,12.075,0,0,1,72.537,45V78.127A12.074,12.074,0,0,1,60.38,90.089Z" transform="translate(11.777 -2.413)"/><path class="h" d="M64.611,41.7A32.911,32.911,0,1,0,97.523,74.611,32.911,32.911,0,0,0,64.611,41.7Z" transform="translate(7.545 13.316)"/><path class="g" d="M65.17,43.518A31.652,31.652,0,1,1,33.518,75.17,31.688,31.688,0,0,1,65.17,43.518m0-2.518a34.17,34.17,0,1,0,34.17,34.17A34.171,34.171,0,0,0,65.17,41Z" transform="translate(6.987 12.757)"/><path class="g" d="M49.25,42h.9v64.744h-.9Z" transform="translate(21.558 13.555)"/><path class="g" d="M31.5,59.75H96.244v.9H31.5Z" transform="translate(7.386 27.728)"/><path class="g" d="M0,0H64.742V.9H0Z" transform="matrix(0.707, -0.707, 0.707, 0.707, 48.051, 110.498)"/><path class="g" d="M0,0H64.745V.9H0Z" transform="translate(54.696 115.748) rotate(-60.033)"/><path class="g" d="M45.38,105.263l-.867-.239L61.584,42.57l.867.239Z" transform="translate(17.776 14.011)"/><path class="g" d="M32.325,73.1l-.239-.867,62.4-17.276.239.867Z" transform="translate(7.854 23.9)"/><path class="g" d="M34.268,84.065l-.453-.777L89.779,50.733l.453.777Z" transform="translate(9.234 20.528)"/><g transform="translate(39.94 56.581)"><path class="g" d="M0,0H.9V64.742H0Z" transform="matrix(0.707, -0.707, 0.707, 0.707, 8.11, 8.776)"/><path class="g" d="M0,0H.9V64.745H0Z" transform="translate(14.742 3.533) rotate(-30)"/><path class="g" d="M61.584,105.263,44.513,42.809l.867-.239,17.071,62.454Z" transform="translate(-22.164 -42.57)"/><path class="g" d="M94.483,73.1l-62.4-17.276.239-.867,62.4,17.276Z" transform="translate(-32.086 -32.681)"/><path class="g" d="M89.779,84.065,33.815,51.51l.453-.777L90.232,83.288Z" transform="translate(-30.706 -36.052)"/></g><g transform="translate(49.676 65.447)"><path class="f" d="M59.98,47.5a22.48,22.48,0,1,0,22.48,22.48A22.48,22.48,0,0,0,59.98,47.5Z" transform="translate(-37.5 -47.5)"/></g><g transform="translate(48.777 64.548)"><path class="g" d="M60.38,93.759A23.38,23.38,0,1,1,68.2,48.34a.9.9,0,0,1-.6,1.7,21.58,21.58,0,1,0,.477,40.512.9.9,0,0,1,.644,1.68A23.31,23.31,0,0,1,60.38,93.759Z" transform="translate(-37 -47)"/></g><g transform="translate(88.748 78.211)"><path class="g" d="M60.124,79.338a.9.9,0,0,1-.7-1.464,21.644,21.644,0,0,0,4.789-13.56,21.415,21.415,0,0,0-1.723-8.463.9.9,0,0,1,1.655-.7,23.406,23.406,0,0,1-3.325,23.86A.893.893,0,0,1,60.124,79.338Z" transform="translate(-59.225 -54.597)"/></g><g transform="translate(84.014 68.514)"><path class="g" d="M61.933,55.037a.9.9,0,0,1-.687-.32,21.747,21.747,0,0,0-4.264-3.872A.9.9,0,0,1,58,49.367a23.432,23.432,0,0,1,4.615,4.192.9.9,0,0,1-.685,1.478Z" transform="translate(-56.593 -49.205)"/></g><g transform="translate(68.56 80.733)"><path class="i" d="M48.344,69.738l1.4-7.345a.451.451,0,0,0-.178-.45,3.147,3.147,0,1,1,3.669,0,.455.455,0,0,0-.178.45l1.4,7.345Z" transform="translate(-47.8 -55.8)"/><path class="g" d="M51.6,56.9a2.7,2.7,0,0,1,2.7,2.7,2.673,2.673,0,0,1-1.128,2.183.9.9,0,0,0-.358.9l1.3,6.811H49.084l1.3-6.811a.9.9,0,0,0-.358-.9A2.692,2.692,0,0,1,51.6,56.9m0-.9a3.59,3.59,0,0,0-2.1,6.509L48,70.387h7.194l-1.5-7.879A3.59,3.59,0,0,0,51.6,56Z" transform="translate(-48 -56)"/></g></svg>