<svg xmlns="http://www.w3.org/2000/svg" viewBox="0 0 100 100"><path fill="#f9dbd2" d="M49.478 12.746000000000002A37.445 37.445 0 1 0 49.478 87.636A37.445 37.445 0 1 0 49.478 12.746000000000002Z"/><path fill="#fff" d="M20.163 55.979A.886.886 0 1 0 20.163 57.751000000000005.886.886 0 1 0 20.163 55.979zM79.213 31.31A.684.684 0 1 0 79.213 32.678.684.684 0 1 0 79.213 31.31z"/><path fill="#f1bc19" d="M76.583 12.075000000000001A.886.886 0 1 0 76.583 13.847.886.886 0 1 0 76.583 12.075000000000001zM20.658 63.653A.886.886 0 1 0 20.658 65.425.886.886 0 1 0 20.658 63.653zM82.024 11.109A4.007 4.007 0 1 0 82.024 19.122999999999998 4.007 4.007 0 1 0 82.024 11.109z"/><path fill="#ee3e54" d="M86.031 22.302A1.884 1.884 0 1 0 86.031 26.07A1.884 1.884 0 1 0 86.031 22.302Z"/><path fill="#fbcd59" d="M77.046 74.717A1.884 1.884 0 1 0 77.046 78.485 1.884 1.884 0 1 0 77.046 74.717zM13.885 59.646A4.007 4.007 0 1 0 13.885 67.66 4.007 4.007 0 1 0 13.885 59.646z"/><path fill="#ee3e54" d="M24.123 85.904A1.884 1.884 0 1 0 24.123 89.672A1.884 1.884 0 1 0 24.123 85.904Z"/><path fill="#fff" d="M17.626 49.003A2.541 2.541 0 1 0 17.626 54.084999999999994A2.541 2.541 0 1 0 17.626 49.003Z"/><path fill="#84a7d7" d="M49.999,65.3c-0.689,0-1.39-0.057-2.082-0.169C42.092,64.188,37.7,58.915,37.7,52.866V35.134 c0-6.049,4.392-11.322,10.217-12.265c0.692-0.112,1.393-0.169,2.082-0.169c6.783,0,12.301,5.424,12.301,12.091v18.418 C62.3,59.876,56.782,65.3,49.999,65.3z M50.001,27.439c-0.552,0-1.111,0.061-1.663,0.179c-3.359,0.722-5.798,3.825-5.798,7.378 v18.008c0,3.553,2.438,6.656,5.798,7.378c0.552,0.118,1.111,0.179,1.663,0.179c1.987,0,3.858-0.765,5.268-2.151 c1.413-1.391,2.191-3.237,2.191-5.2V34.791C57.46,30.737,54.113,27.439,50.001,27.439z"/><path fill="#472b29" d="M50.001,22v1.4c6.395,0,11.599,5.11,11.599,11.391v18.419C61.6,59.49,56.396,64.6,50,64.6 c-0.652,0-1.316-0.054-1.971-0.16c-5.489-0.889-9.629-5.865-9.629-11.574V35.134c0-5.709,4.139-10.685,9.629-11.574 c0.655-0.106,1.319-0.16,1.971-0.16L50.001,22 M50,61.26c4.499,0,8.16-3.612,8.16-8.051V34.791c0-4.439-3.661-8.051-8.16-8.051 c-0.601,0-1.21,0.065-1.809,0.194c-3.68,0.791-6.351,4.182-6.351,8.062v18.008c0,3.88,2.671,7.271,6.351,8.062 C48.79,61.195,49.399,61.26,50,61.26 M50,22c-0.719,0-1.453,0.058-2.195,0.178C41.486,23.201,37,28.833,37,35.134v17.732 c0,6.301,4.486,11.933,10.805,12.956C48.547,65.942,49.28,66,50,66c7.168,0,13-5.738,13-12.791V34.791 C63,27.737,57.169,21.999,50,22L50,22z M50,59.86c-0.495,0-1.001-0.052-1.515-0.163c-3.122-0.671-5.245-3.55-5.245-6.694V34.996 c0-3.144,2.123-6.022,5.245-6.694c0.514-0.11,1.02-0.163,1.515-0.163c3.727,0,6.76,2.984,6.76,6.651v18.419 C56.76,56.877,53.727,59.86,50,59.86L50,59.86z"/><path fill="#f2df5e" d="M50 41.7A18.3 18.3 0 1 0 50 78.3A18.3 18.3 0 1 0 50 41.7Z"/><path fill="#472b29" d="M50,42.4c9.705,0,17.6,7.895,17.6,17.6S59.705,77.6,50,77.6S32.4,69.705,32.4,60 S40.295,42.4,50,42.4 M50,41c-10.493,0-19,8.507-19,19s8.507,19,19,19s19-8.507,19-19S60.493,41,50,41L50,41z"/><path fill="#472b29" d="M49.25 42H49.75V78H49.25z"/><path fill="#472b29" d="M31.5 59.75H67.5V60.25H31.5z"/><path fill="#472b29" d="M31.501 59.75H67.5V60.25H31.501z" transform="rotate(-45.001 49.5 60)"/><path fill="#472b29" d="M31.5 59.75H67.501V60.251H31.5z" transform="rotate(-60.033 49.5 60.001)"/><path fill="#472b29" d="M44.995 77.43L44.513 77.297 54.005 42.57 54.487 42.703z"/><path fill="#472b29" d="M32.219 65.044L32.086 64.562 66.781 54.956 66.914 55.438z"/><path fill="#472b29" d="M34.067 69.267L33.815 68.835 64.933 50.733 65.185 51.165z"/><g><path fill="#472b29" d="M49.25 42.001H49.75V78H49.25z" transform="rotate(-45.001 49.5 60)"/><path fill="#472b29" d="M49.25 42H49.751V78.001H49.25z" transform="rotate(-30 49.495 60)"/><path fill="#472b29" d="M54.005 77.43L44.513 42.703 44.995 42.57 54.487 77.297z"/><path fill="#472b29" d="M66.781 65.044L32.086 55.438 32.219 54.956 66.914 64.562z"/><path fill="#472b29" d="M64.933 69.267L33.815 51.165 34.067 50.733 65.185 68.835z"/></g><g><path fill="#84a7d7" d="M50 47.5A12.5 12.5 0 1 0 50 72.5A12.5 12.5 0 1 0 50 47.5Z"/></g><g><path fill="#472b29" d="M50,73c-7.168,0-13-5.832-13-13s5.832-13,13-13c1.491,0,2.954,0.251,4.349,0.745 c0.261,0.093,0.396,0.379,0.305,0.639c-0.093,0.261-0.38,0.396-0.639,0.305C52.728,48.231,51.377,48,50,48c-6.617,0-12,5.383-12,12 s5.383,12,12,12c1.475,0,2.915-0.265,4.28-0.785c0.261-0.099,0.547,0.03,0.646,0.288c0.099,0.259-0.03,0.548-0.288,0.646 C53.157,72.714,51.597,73,50,73z"/></g><g><path fill="#472b29" d="M59.725,68.354c-0.11,0-0.222-0.036-0.314-0.111c-0.215-0.174-0.248-0.488-0.074-0.703 C61.054,65.415,62,62.737,62,60c0-1.634-0.322-3.218-0.958-4.706c-0.108-0.254,0.01-0.548,0.264-0.656 c0.256-0.109,0.548,0.009,0.656,0.264C62.65,56.515,63,58.23,63,60c0,2.965-1.025,5.866-2.887,8.169 C60.015,68.291,59.87,68.354,59.725,68.354z"/></g><g><path fill="#472b29" d="M59.562,52.448c-0.142,0-0.283-0.061-0.382-0.178c-0.692-0.82-1.49-1.545-2.371-2.153 c-0.228-0.156-0.284-0.468-0.127-0.695c0.156-0.229,0.468-0.285,0.695-0.127c0.954,0.658,1.817,1.442,2.566,2.331 c0.179,0.211,0.151,0.526-0.06,0.704C59.79,52.409,59.676,52.448,59.562,52.448z"/></g><g><path fill="#6673a7" d="M48.302,63.75l0.777-4.084c0.019-0.096-0.021-0.192-0.099-0.25c-0.457-0.33-0.73-0.859-0.73-1.416 c0-0.965,0.785-1.75,1.75-1.75s1.75,0.785,1.75,1.75c0,0.557-0.273,1.086-0.73,1.416c-0.078,0.058-0.117,0.154-0.099,0.25 l0.777,4.084H48.302z"/><path fill="#472b29" d="M50,56.5c0.827,0,1.5,0.673,1.5,1.5c0,0.484-0.229,0.926-0.627,1.214 c-0.158,0.114-0.235,0.308-0.199,0.499l0.721,3.787h-2.792l0.721-3.787c0.036-0.191-0.041-0.385-0.199-0.499 C48.729,58.926,48.5,58.484,48.5,58C48.5,57.173,49.173,56.5,50,56.5 M50,56c-1.105,0-2,0.895-2,2 c0,0.668,0.331,1.256,0.834,1.619L48,64h4l-0.834-4.381C51.669,59.256,52,58.668,52,58C52,56.895,51.105,56,50,56L50,56z"/></g></svg>