<svg xmlns="http://www.w3.org/2000/svg" width="140.278" height="140.278" viewBox="0 0 140.278 140.278"><defs><style>.a{fill:#ee3e54;}.b{fill:#f1bc19;}.c{fill:#fce0a2;}.d{fill:#fbcd59;}.e{fill:#fff;}.f{fill:#48bed8;}.g{fill:#472b29;}.h{fill:#fddbbc;}.i{fill:#a1d3a2;}</style></defs><path class="a" d="M14.6,27a3.6,3.6,0,1,0,3.6,3.6A3.6,3.6,0,0,0,14.6,27Z" transform="translate(-11 1.775)"/><path class="b" d="M77.8,12a1.8,1.8,0,1,0,1.8,1.8A1.8,1.8,0,0,0,77.8,12Z" transform="translate(40.898 -10.202)"/><path class="c" d="M79.542,13a66.542,66.542,0,1,0,66.542,66.542A66.542,66.542,0,0,0,79.542,13Z" transform="translate(-9.403 -9.403)"/><path class="b" d="M86.194,11a7.194,7.194,0,1,0,7.194,7.194A7.194,7.194,0,0,0,86.194,11Z" transform="translate(43.294 -11)"/><path class="a" d="M88.6,22a3.6,3.6,0,1,0,3.6,3.6A3.6,3.6,0,0,0,88.6,22Z" transform="translate(48.084 -2.217)"/><path class="d" d="M136.89,85.977a3.6,3.6,0,1,0,3.6,3.6A3.6,3.6,0,0,0,136.89,85.977ZM18.194,59a7.194,7.194,0,1,0,7.194,7.194A7.194,7.194,0,0,0,18.194,59Z" transform="translate(-11 27.325)"/><path class="a" d="M26.6,85a3.6,3.6,0,1,0,3.6,3.6A3.6,3.6,0,0,0,26.6,85Z" transform="translate(-1.419 48.084)"/><path class="e" d="M20.5,51a4.5,4.5,0,1,0,4.5,4.5A4.5,4.5,0,0,0,20.5,51Z" transform="translate(-7.008 20.937)"/><path class="b" d="M21.8,66a1.8,1.8,0,1,0,1.8,1.8A1.8,1.8,0,0,0,21.8,66Z" transform="translate(-3.814 32.914)"/><path class="e" d="M80.8,33a1.8,1.8,0,1,0,1.8,1.8A1.8,1.8,0,0,0,80.8,33Z" transform="translate(43.294 6.566)"/><path class="f" d="M42.2,70.061V59.369A10.179,10.179,0,0,1,52.368,49.2h5.919A10.179,10.179,0,0,1,68.455,59.369V70.061Z" transform="translate(13.911 19.501)"/><path class="g" d="M58.848,51.018a8.92,8.92,0,0,1,8.909,8.909v9.435H44.018V59.927a8.92,8.92,0,0,1,8.909-8.909h5.92m0-2.518h-5.92A11.428,11.428,0,0,0,41.5,59.927V71.88H70.275V59.927A11.428,11.428,0,0,0,58.848,48.5Z" transform="translate(13.352 18.941)"/><path class="g" d="M45.9,67.488a.9.9,0,0,1-.9-.9V54.9a.9.9,0,1,1,1.8,0v11.69A.9.9,0,0,1,45.9,67.488Zm14.387,0a.9.9,0,0,1-.9-.9V54.9a.9.9,0,1,1,1.8,0v11.69A.9.9,0,0,1,60.287,67.488Z" transform="translate(16.147 23.333)"/><path class="h" d="M53.332,39.7a8.632,8.632,0,1,0,8.632,8.632A8.632,8.632,0,0,0,53.332,39.7Z" transform="translate(15.907 11.915)"/><path class="g" d="M53.891,41.518a7.374,7.374,0,1,1-7.374,7.374,7.381,7.381,0,0,1,7.374-7.374m0-2.518a9.891,9.891,0,1,0,9.891,9.891A9.89,9.89,0,0,0,53.891,39Z" transform="translate(15.348 11.356)"/><g transform="translate(68.341 95.317)"><path class="g" d="M49.9,78.387a.9.9,0,0,1-.9-.9V64.9a.9.9,0,1,1,1.8,0V77.488A.9.9,0,0,1,49.9,78.387Z" transform="translate(-49 -64)"/></g><g transform="translate(26.977 95.317)"><path class="i" d="M32.635,64.7a5.935,5.935,0,1,0,5.935,5.935A5.935,5.935,0,0,0,32.635,64.7Z" transform="translate(-25.441 -63.441)"/><path class="g" d="M33.194,66.518a4.676,4.676,0,1,1-4.676,4.676,4.682,4.682,0,0,1,4.676-4.676m0-2.518a7.194,7.194,0,1,0,7.194,7.194A7.194,7.194,0,0,0,33.194,64Z" transform="translate(-26 -64)"/></g><g transform="translate(62.945 106.108)"><path class="i" d="M52.635,70.7a5.935,5.935,0,1,0,5.935,5.935A5.935,5.935,0,0,0,52.635,70.7Z" transform="translate(-45.441 -69.441)"/><path class="g" d="M53.194,72.518a4.676,4.676,0,1,1-4.676,4.676,4.682,4.682,0,0,1,4.676-4.676m0-2.518a7.194,7.194,0,1,0,7.194,7.194A7.194,7.194,0,0,0,53.194,70Z" transform="translate(-46 -70)"/></g><g transform="translate(97.116 95.317)"><path class="i" d="M71.635,64.7a5.935,5.935,0,1,0,5.935,5.935A5.935,5.935,0,0,0,71.635,64.7Z" transform="translate(-64.441 -63.441)"/><path class="g" d="M72.194,66.518a4.676,4.676,0,1,1-4.676,4.676,4.682,4.682,0,0,1,4.676-4.676m0-2.518a7.194,7.194,0,1,0,7.194,7.194A7.194,7.194,0,0,0,72.194,64Z" transform="translate(-65 -64)"/></g><g transform="translate(37.824 88.151)"><path class="g" d="M32.931,70.644a.9.9,0,0,1-.637-1.534L41.1,60.3a.954.954,0,0,1,1.315-.043.852.852,0,0,1,.041,1.23l-8.9,8.9A.9.9,0,0,1,32.931,70.644Z" transform="translate(-32.032 -60.015)"/></g><g transform="translate(90.454 89.464)"><path class="g" d="M69.678,70.061a.9.9,0,0,1-.637-.263l-7.464-7.464a.944.944,0,0,1-.04-1.3.858.858,0,0,1,1.232-.047l7.544,7.543a.9.9,0,0,1-.637,1.534Z" transform="translate(-61.296 -60.745)"/></g><g transform="translate(68.341 30.617)"><path class="g" d="M49.9,42.368a.9.9,0,0,1-.9-.9V28.963a.934.934,0,0,1,.9-.939.864.864,0,0,1,.9.858V41.471A.9.9,0,0,1,49.9,42.368Z" transform="translate(-49 -28.024)"/></g><g transform="translate(97.116 30.573)"><path class="i" d="M71.635,28.7a5.935,5.935,0,1,0,5.935,5.935A5.935,5.935,0,0,0,71.635,28.7Z" transform="translate(-64.441 -27.441)"/><path class="g" d="M72.194,30.518a4.676,4.676,0,1,1-4.676,4.676,4.682,4.682,0,0,1,4.676-4.676m0-2.518a7.194,7.194,0,1,0,7.194,7.194A7.194,7.194,0,0,0,72.194,28Z" transform="translate(-65 -28)"/></g><g transform="translate(62.945 17.984)"><path class="i" d="M52.635,21.7a5.935,5.935,0,1,0,5.935,5.935A5.935,5.935,0,0,0,52.635,21.7Z" transform="translate(-45.441 -20.441)"/><path class="g" d="M53.194,23.518a4.676,4.676,0,1,1-4.676,4.676,4.682,4.682,0,0,1,4.676-4.676m0-2.518a7.194,7.194,0,1,0,7.194,7.194A7.194,7.194,0,0,0,53.194,21Z" transform="translate(-46 -21)"/></g><g transform="translate(26.977 30.573)"><path class="i" d="M32.635,28.7a5.935,5.935,0,1,0,5.935,5.935A5.935,5.935,0,0,0,32.635,28.7Z" transform="translate(-25.441 -27.441)"/><path class="g" d="M33.194,30.518a4.676,4.676,0,1,1-4.676,4.676,4.682,4.682,0,0,1,4.676-4.676m0-2.518a7.194,7.194,0,1,0,7.194,7.194A7.194,7.194,0,0,0,33.194,28Z" transform="translate(-26 -28)"/></g><g transform="translate(89.981 42.36)"><path class="g" d="M61.932,45.185a.867.867,0,0,1-.615-.243.852.852,0,0,1-.041-1.23l8.9-8.9a.9.9,0,0,1,1.271,1.271L62.634,44.9A1,1,0,0,1,61.932,45.185Z" transform="translate(-61.033 -34.554)"/></g><g transform="translate(38.745 42.36)"><path class="g" d="M40.927,43.87a.817.817,0,0,1-.576-.239l-7.544-7.543a.9.9,0,1,1,1.272-1.271l7.464,7.463a.944.944,0,0,1,.04,1.3A.913.913,0,0,1,40.927,43.87Z" transform="translate(-32.544 -34.554)"/></g></svg>