<svg xmlns="http://www.w3.org/2000/svg" viewBox="0 0 100 100"><path fill="#ee3e54" d="M13 27A2 2 0 1 0 13 31A2 2 0 1 0 13 27Z"/><path fill="#f1bc19" d="M77 12A1 1 0 1 0 77 14A1 1 0 1 0 77 12Z"/><path fill="#fce0a2" d="M50 13A37 37 0 1 0 50 87A37 37 0 1 0 50 13Z"/><path fill="#f1bc19" d="M83 11A4 4 0 1 0 83 19A4 4 0 1 0 83 11Z"/><path fill="#ee3e54" d="M87 22A2 2 0 1 0 87 26A2 2 0 1 0 87 22Z"/><path fill="#fbcd59" d="M81 74A2 2 0 1 0 81 78 2 2 0 1 0 81 74zM15 59A4 4 0 1 0 15 67 4 4 0 1 0 15 59z"/><path fill="#ee3e54" d="M25 85A2 2 0 1 0 25 89A2 2 0 1 0 25 85Z"/><path fill="#fff" d="M18.5 51A2.5 2.5 0 1 0 18.5 56A2.5 2.5 0 1 0 18.5 51Z"/><path fill="#f1bc19" d="M21 66A1 1 0 1 0 21 68A1 1 0 1 0 21 66Z"/><path fill="#fff" d="M80 33A1 1 0 1 0 80 35A1 1 0 1 0 80 33Z"/><path fill="#48bed8" d="M42.2,60.8v-5.945c0-3.118,2.536-5.654,5.654-5.654h3.291c3.118,0,5.654,2.536,5.654,5.654V60.8 H42.2z"/><path fill="#472b29" d="M51.146,49.9c2.732,0,4.954,2.223,4.954,4.954V60.1H42.9v-5.246c0-2.731,2.222-4.954,4.954-4.954 H51.146 M51.146,48.5h-3.292c-3.509,0-6.354,2.845-6.354,6.354V61.5h16v-6.646C57.5,51.345,54.655,48.5,51.146,48.5L51.146,48.5z"/><path fill="#472b29" d="M45.5 61.5c-.276 0-.5-.224-.5-.5v-6.5c0-.276.224-.5.5-.5s.5.224.5.5V61C46 61.276 45.776 61.5 45.5 61.5zM53.5 61.5c-.276 0-.5-.224-.5-.5v-6.5c0-.276.224-.5.5-.5s.5.224.5.5V61C54 61.276 53.776 61.5 53.5 61.5z"/><path fill="#fddbbc" d="M49.5 39.7A4.8 4.8 0 1 0 49.5 49.3A4.8 4.8 0 1 0 49.5 39.7Z"/><path fill="#472b29" d="M49.5,40.4c2.261,0,4.1,1.839,4.1,4.1s-1.839,4.1-4.1,4.1s-4.1-1.839-4.1-4.1 S47.239,40.4,49.5,40.4 M49.5,39c-3.038,0-5.5,2.462-5.5,5.5s2.462,5.5,5.5,5.5s5.5-2.462,5.5-5.5S52.538,39,49.5,39L49.5,39z"/><g><path fill="#472b29" d="M49.5,72c-0.276,0-0.5-0.224-0.5-0.5v-7c0-0.276,0.224-0.5,0.5-0.5s0.5,0.224,0.5,0.5v7 C50,71.776,49.776,72,49.5,72z"/></g><g><path fill="#a1d3a2" d="M30 64.7A3.3 3.3 0 1 0 30 71.3A3.3 3.3 0 1 0 30 64.7Z"/><path fill="#472b29" d="M30,65.4c1.434,0,2.6,1.167,2.6,2.6s-1.166,2.6-2.6,2.6s-2.6-1.167-2.6-2.6S28.566,65.4,30,65.4 M30,64c-2.209,0-4,1.791-4,4s1.791,4,4,4s4-1.791,4-4S32.209,64,30,64L30,64z"/></g><g><path fill="#a1d3a2" d="M50 70.7A3.3 3.3 0 1 0 50 77.3A3.3 3.3 0 1 0 50 70.7Z"/><path fill="#472b29" d="M50,71.4c1.434,0,2.6,1.167,2.6,2.6s-1.166,2.6-2.6,2.6s-2.6-1.167-2.6-2.6S48.566,71.4,50,71.4 M50,70c-2.209,0-4,1.791-4,4s1.791,4,4,4s4-1.791,4-4S52.209,70,50,70L50,70z"/></g><g><path fill="#a1d3a2" d="M69 64.7A3.3 3.3 0 1 0 69 71.3A3.3 3.3 0 1 0 69 64.7Z"/><path fill="#472b29" d="M69,65.4c1.434,0,2.6,1.167,2.6,2.6s-1.166,2.6-2.6,2.6s-2.6-1.167-2.6-2.6S67.566,65.4,69,65.4 M69,64c-2.209,0-4,1.791-4,4s1.791,4,4,4s4-1.791,4-4S71.209,64,69,64L69,64z"/></g><g><path fill="#472b29" d="M32.532,65.925c-0.128,0-0.256-0.049-0.354-0.146c-0.195-0.195-0.195-0.512,0-0.707l4.898-4.898 c0.195-0.196,0.536-0.218,0.731-0.024c0.194,0.195,0.219,0.488,0.023,0.684l-4.946,4.946C32.788,65.876,32.66,65.925,32.532,65.925 z"/></g><g><path fill="#472b29" d="M65.957,65.925c-0.128,0-0.256-0.049-0.354-0.146l-4.15-4.15c-0.194-0.194-0.216-0.529-0.022-0.725 c0.192-0.194,0.486-0.219,0.685-0.026l4.195,4.194c0.195,0.195,0.195,0.512,0,0.707C66.213,65.876,66.085,65.925,65.957,65.925z"/></g><g><path fill="#472b29" d="M49.5,36c-0.276,0-0.5-0.224-0.5-0.5v-6.954c0-0.276,0.224-0.522,0.5-0.522s0.5,0.2,0.5,0.477v7 C50,35.776,49.776,36,49.5,36z"/></g><g><path fill="#a1d3a2" d="M69 28.7A3.3 3.3 0 1 0 69 35.3A3.3 3.3 0 1 0 69 28.7Z"/><path fill="#472b29" d="M69,29.4c1.434,0,2.6,1.167,2.6,2.6s-1.166,2.6-2.6,2.6s-2.6-1.167-2.6-2.6S67.566,29.4,69,29.4 M69,28c-2.209,0-4,1.791-4,4s1.791,4,4,4s4-1.791,4-4S71.209,28,69,28L69,28z"/></g><g><path fill="#a1d3a2" d="M50 21.7A3.3 3.3 0 1 0 50 28.3A3.3 3.3 0 1 0 50 21.7Z"/><path fill="#472b29" d="M50,22.4c1.434,0,2.6,1.167,2.6,2.6s-1.166,2.6-2.6,2.6s-2.6-1.167-2.6-2.6S48.566,22.4,50,22.4 M50,21c-2.209,0-4,1.791-4,4s1.791,4,4,4s4-1.791,4-4S52.209,21,50,21L50,21z"/></g><g><path fill="#a1d3a2" d="M30 28.7A3.3 3.3 0 1 0 30 35.3A3.3 3.3 0 1 0 30 28.7Z"/><path fill="#472b29" d="M30,29.4c1.434,0,2.6,1.167,2.6,2.6s-1.166,2.6-2.6,2.6s-2.6-1.167-2.6-2.6S28.566,29.4,30,29.4 M30,28c-2.209,0-4,1.791-4,4s1.791,4,4,4s4-1.791,4-4S32.209,28,30,28L30,28z"/></g><g><path fill="#472b29" d="M61.533,40.465c-0.126,0-0.25-0.044-0.342-0.135c-0.194-0.195-0.219-0.488-0.023-0.684l4.946-4.946 c0.195-0.195,0.512-0.195,0.707,0s0.195,0.512,0,0.707l-4.898,4.898C61.819,40.409,61.675,40.465,61.533,40.465z"/></g><g><path fill="#472b29" d="M37.205,39.734c-0.114,0-0.228-0.043-0.32-0.133l-4.195-4.194c-0.195-0.195-0.195-0.512,0-0.707 s0.512-0.195,0.707,0l4.15,4.15c0.194,0.194,0.216,0.529,0.022,0.725C37.467,39.68,37.336,39.734,37.205,39.734z"/></g></svg>