<svg xmlns="http://www.w3.org/2000/svg" width="138.3" height="138.3" viewBox="0 0 138.3 138.3"><defs><style>.a{fill:#fff;}.b{fill:#f1bc19;}.c{fill:#cee1f4;}.d{fill:#78a0cf;}.e{fill:#fbcd59;}.f{fill:#cbc9bc;}.g{fill:#472b29;}.h{fill:#e1e0d8;}.i{fill:#c5def0;}.j{fill:#fdfcef;}.k{fill:#ce942b;}.l{fill:#895f3f;}.m{fill:#5d87af;}.n{fill:#a3754f;}.o{fill:#512c2b;}.p{fill:#895d3d;}.q{fill:#5e2e2e;}</style></defs><path class="a" d="M81.359,31.8a1.259,1.259,0,1,0,1.259,1.259A1.259,1.259,0,0,0,81.359,31.8Z" transform="translate(43.273 4.528)"/><path class="b" d="M78.819,12.5a1.619,1.619,0,1,0,1.619,1.619A1.619,1.619,0,0,0,78.819,12.5Z" transform="translate(40.957 -10.881)"/><path class="c" d="M80.841,13.2a67.441,67.441,0,1,0,67.441,67.441A67.441,67.441,0,0,0,80.841,13.2Z" transform="translate(-9.983 -10.323)"/><path class="b" d="M86.794,11.6a7.194,7.194,0,1,0,7.194,7.194A7.194,7.194,0,0,0,86.794,11.6Z" transform="translate(42.873 -11.6)"/><path class="d" d="M14.917,27.3a3.417,3.417,0,1,0,3.417,3.417A3.417,3.417,0,0,0,14.917,27.3Z" transform="translate(-11.5 0.935)"/><path class="e" d="M123.712,77.855a3.417,3.417,0,1,0,3.417,3.417,3.417,3.417,0,0,0-3.417-3.417ZM29.294,72.1a7.194,7.194,0,1,0,7.194,7.194A7.194,7.194,0,0,0,29.294,72.1Z" transform="translate(-3.037 36.705)"/><path class="d" d="M28.717,84.7a3.417,3.417,0,1,0,3.417,3.417A3.417,3.417,0,0,0,28.717,84.7Z" transform="translate(-0.482 46.766)"/><path class="a" d="M60.676,77.7a4.676,4.676,0,1,0,4.676,4.676A4.676,4.676,0,0,0,60.676,77.7Z" transform="translate(24.03 41.176)"/><path class="f" d="M71.556,28.039v8.273a1.418,1.418,0,0,1-1.439,1.439H68.139A1.418,1.418,0,0,1,66.7,36.312V28.039A1.418,1.418,0,0,1,68.139,26.6h1.978C71.016,26.78,71.556,27.319,71.556,28.039Z" transform="translate(32.574 0.377)"/><path class="g" d="M70.357,38.629H68.378A2,2,0,0,1,66.4,36.651V28.378A2,2,0,0,1,68.378,26.4h1.978a2,2,0,0,1,1.978,1.978v8.093A1.853,1.853,0,0,1,70.357,38.629Zm-1.978-10.97a.774.774,0,0,0-.719.719v8.093a.774.774,0,0,0,.719.719h1.978a.774.774,0,0,0,.719-.719V28.2a.774.774,0,0,0-.719-.719H68.378Z" transform="translate(32.334 0.217)"/><path class="h" d="M42.092,20.1H85.434a8.9,8.9,0,0,1,8.992,8.992v93.7a8.9,8.9,0,0,1-8.992,8.992H42.092a8.9,8.9,0,0,1-8.992-8.992v-93.7A9.018,9.018,0,0,1,42.092,20.1Z" transform="translate(5.746 -4.813)"/><path class="g" d="M85.834,133.081H42.491A9.979,9.979,0,0,1,32.6,123.19v-93.7A9.979,9.979,0,0,1,42.491,19.6H85.834a9.979,9.979,0,0,1,9.891,9.891v93.7A9.979,9.979,0,0,1,85.834,133.081ZM42.491,21.4A8.059,8.059,0,0,0,34.4,29.491v93.7a8.059,8.059,0,0,0,8.093,8.093H85.834a8.059,8.059,0,0,0,8.093-8.093v-93.7A8.059,8.059,0,0,0,85.834,21.4Z" transform="translate(5.347 -5.213)"/><path class="i" d="M84.619,42.028v64.564H37.5V28H84.619Z" transform="translate(9.259 1.494)"/><path class="g" d="M37.319,77.276a.774.774,0,0,1-.719-.719V27.819a.774.774,0,0,1,.719-.719H78.144a.719.719,0,1,1,0,1.439H38.039V76.557A.659.659,0,0,1,37.319,77.276Zm47.3,29.854h-47.3a.774.774,0,0,1-.719-.719V92.2a.719.719,0,0,1,1.439,0v13.488H83.9V42.027a.719.719,0,0,1,1.439,0v64.384C85.158,106.95,84.978,107.13,84.618,107.13Z" transform="translate(8.541 0.776)"/><path class="f" d="M51.457,73.9a3.957,3.957,0,1,0,3.957,3.957A3.957,3.957,0,0,0,51.457,73.9Z" transform="translate(17.244 38.142)"/><path class="g" d="M60.16,122.514a4.676,4.676,0,1,1,4.676-4.676A4.643,4.643,0,0,1,60.16,122.514Zm0-7.733a3.237,3.237,0,1,0,3.237,3.237A3.224,3.224,0,0,0,60.16,114.781ZM54.584,23.6H67.353a.774.774,0,0,1,.719.719v.18a.774.774,0,0,1-.719.719H54.584a.774.774,0,0,1-.719-.719v-.18A.774.774,0,0,1,54.584,23.6ZM84.618,36.009a.774.774,0,0,1-.719-.719V30.614a.719.719,0,0,1,1.439,0V35.29C85.158,35.829,84.978,36.009,84.618,36.009Zm0,3.237a.766.766,0,0,1-.54-1.259.817.817,0,0,1,.9,0,.9.9,0,0,1,0,1.079l-.18.18ZM37.319,92.66a.774.774,0,0,1-.719-.719V88.7a.719.719,0,1,1,1.439,0V91.94A.659.659,0,0,1,37.319,92.66Z" transform="translate(8.541 -2.019)"/><path class="j" d="M67.842,53.186C67.842,44.194,58.131,37,46.261,37S24.5,44.194,24.5,53.186s9.712,16.186,21.761,16.186h2.518a20.349,20.349,0,0,0,11.15,5.4c.719,0,1.259-.36,1.259-1.079v-.719a16.8,16.8,0,0,1-1.619-7.194h0c5.215-3.057,8.273-7.553,8.273-12.589" transform="translate(-1.12 8.68)"/><path class="g" d="M60.508,76.066h-.36a21.4,21.4,0,0,1-11.51-5.4H46.3C34.071,70.67,24,62.937,24,53.585S34.071,36.5,46.66,36.5c12.409,0,22.48,7.733,22.48,17.085h0c0,5.215-2.877,9.891-8.093,13.129a15.332,15.332,0,0,0,1.439,6.295,2.281,2.281,0,0,1,.18,1.079,2.22,2.22,0,0,1-.719,1.439A2.392,2.392,0,0,1,60.508,76.066ZM46.48,38.3C35.15,38.3,25.8,45.132,25.8,53.585S35.15,68.872,46.66,68.872h2.518a.661.661,0,0,1,.54.18,20.3,20.3,0,0,0,10.791,5.215.628.628,0,0,0,.36-.18,19.242,19.242,0,0,1-1.619-7.733.934.934,0,0,1,.36-.719c4.856-2.877,7.733-7.374,7.733-11.87h0C67.342,45.132,57.99,38.3,46.48,38.3Zm22.66,15.287Z" transform="translate(-1.52 8.281)"/><path class="b" d="M47.067,53.77l-.719-5.755A6.064,6.064,0,0,0,40.232,41.9h-.54a6.064,6.064,0,0,0-6.115,6.115l-.719,5.755a1.259,1.259,0,1,0,0,2.518H46.887a1.229,1.229,0,0,0,1.259-1.259C48.146,54.309,47.786,53.77,47.067,53.77Z" transform="translate(4.549 12.593)"/><path class="g" d="M47.226,57.146H33.2a1.7,1.7,0,0,1-1.8-1.8,1.956,1.956,0,0,1,1.259-1.8l.54-5.4A6.757,6.757,0,0,1,39.853,41.5h.54a6.757,6.757,0,0,1,6.654,6.654l.54,5.4a1.787,1.787,0,0,1,1.259,1.8A1.566,1.566,0,0,1,47.226,57.146ZM39.853,42.759a5.6,5.6,0,0,0-5.575,5.575l-.719,5.935a.477.477,0,0,1-.54.54.719.719,0,0,0,0,1.439H47.046a.719.719,0,1,0,0-1.439.477.477,0,0,1-.54-.54l-.719-5.755a5.6,5.6,0,0,0-5.575-5.575h-.36Z" transform="translate(4.389 12.273)"/><path class="k" d="M37.938,42.22a1.112,1.112,0,0,0-1.439-.9.963.963,0,0,0-.9.9Z" transform="translate(7.742 12.093)"/><path class="g" d="M38.158,42.814H35.82c-.18,0-.18,0-.36-.18s-.18-.18,0-.36a1.528,1.528,0,0,1,1.259-1.259,1.482,1.482,0,0,1,1.8,1.259v.36C38.517,42.814,38.337,42.814,38.158,42.814Zm-1.8-.719h1.259c-.18-.18-.54-.36-.719-.18A.661.661,0,0,0,36.359,42.094Z" transform="translate(7.523 11.859)"/><path class="k" d="M35,50a2.347,2.347,0,0,0,2.338,2.158A2.483,2.483,0,0,0,39.676,50Z" transform="translate(7.263 19.06)"/><path class="g" d="M37.5,53.8a2.724,2.724,0,0,1-2.7-2.338V51.1l.18-.18h4.676c.18,0,.18,0,.18.18a.249.249,0,0,1,0,.36c.18,1.259-.9,2.158-2.338,2.338Zm-1.978-2.158A1.949,1.949,0,0,0,37.5,53.076h0a1.751,1.751,0,0,0,1.8-1.439Zm6.654-2.518h-.9a.36.36,0,0,1,0-.719h.9a.36.36,0,1,1,0,.719Z" transform="translate(7.104 17.782)"/><path class="g" d="M38.24,49.119h-.18a.36.36,0,1,1,0-.719h.18a.36.36,0,1,1,0,.719Z" transform="translate(9.419 17.782)"/><path class="g" d="M41.812,49.119H32.46a.36.36,0,1,1,0-.719h9.352a.36.36,0,1,1,0,.719Z" transform="translate(4.948 17.782)"/><path class="a" d="M24.219,68.5a1.619,1.619,0,1,0,1.619,1.619A1.619,1.619,0,0,0,24.219,68.5Z" transform="translate(-2.637 33.831)"/><path class="b" d="M86.019,30.2a1.619,1.619,0,1,0,1.619,1.619A1.619,1.619,0,0,0,86.019,30.2Z" transform="translate(46.706 3.251)"/><path class="a" d="M79.537,66.5a3.237,3.237,0,1,0,3.237,3.237A3.237,3.237,0,0,0,79.537,66.5Z" transform="translate(40.239 32.234)"/><path class="l" d="M96.3,67.848a4.976,4.976,0,0,0-3.777-4.5l-.36-.18-.54-.18c-1.439-.54-9.712-3.6-9.712-3.6a2.4,2.4,0,0,1-1.439-1.259,9.958,9.958,0,0,1-.36-3.237c-1.8.54-3.777,1.079-5.575,1.619C72.382,56.7,67.886,54,67.886,54s-.18,3.417-.18,4.136A1.742,1.742,0,0,1,66.267,59.4l-7.913,2.877a8.115,8.115,0,0,0-5.935,5.575s-.54,3.6-.54,3.777c0,.54-.18,1.079-.18,1.619,8.632,5.935,15.646,7.553,27.516,7.014a50.79,50.79,0,0,0,17.625-5.036A41.548,41.548,0,0,0,96.3,67.848Z" transform="translate(20.597 22.254)"/><path class="j" d="M76.105,57.719l-1.079-.36c-.18,0-.36-.18-.54-.36-1.978.719-1.8,1.619-4.136,1.619.9,0-.9-.54,0,0-3.417.36-7.194,1.079-9.352-1.439-.18,0-.18.18-.36.18l-1.079.36H59.2c1.619,4.676,5.575,21.042,7.194,25.538H70.17c1.978-4.136,6.654-20.5,8.273-24.818Z" transform="translate(26.585 24.649)"/><path class="e" d="M63.978,62.6,62,58.1h8.093l-2.158,4.5a2.253,2.253,0,0,1-3.957,0Z" transform="translate(28.821 25.527)"/><path class="e" d="M67.2,62.039l1.079,17.625-5.575.18,1.439-17.8C65.038,60.42,66.3,60.42,67.2,62.039Z" transform="translate(29.38 27.703)"/><path class="h" d="M61.778,56.3,59.8,57.739l4.316,6.654,3.957-5.215C68.073,59.357,61.958,57.739,61.778,56.3Z" transform="translate(27.064 24.09)"/><path class="h" d="M70.474,56.3l1.978,1.439-4.316,6.654L64,59.357S70.115,57.739,70.474,56.3Z" transform="translate(30.418 24.09)"/><path class="d" d="M52.859,63.654a10.793,10.793,0,0,1,4.856-3.6l1.619-.54h0L65.808,57c1.619,4.316,5.575,22.3,7.553,26.437A40.416,40.416,0,0,1,62.93,82.178,67.964,67.964,0,0,1,51.6,76.243C51.78,75.164,51.42,67.071,52.859,63.654Zm42.983-.9c-.54-1.079-1.259-1.259-2.518-1.619l-1.619-.54h0L82.533,57.54c-1.619,4.316-5.935,21.4-7.374,25.9A42.339,42.339,0,0,0,87.749,82c7.014-1.978,9.891-3.777,9.891-3.957C97.28,77.142,97.28,66.172,95.842,62.755Z" transform="translate(20.517 24.649)"/><path class="m" d="M56.24,72.775a.574.574,0,0,1-.54-.54V67.919a.574.574,0,0,1,.54-.54.811.811,0,0,1,.54.54v4.316A.574.574,0,0,1,56.24,72.775Zm29.315.719a.574.574,0,0,1-.54-.54V67.74a.574.574,0,0,1,.54-.54.811.811,0,0,1,.54.54v5.215A.477.477,0,0,1,85.554,73.495Z" transform="translate(23.791 32.793)"/><path class="n" d="M84.814,52.326h-.36c-1.079,0-1.439.36-1.259-.36V45.672c0-5.036-5.215-8.992-11.69-9.172h-.36c-6.474.18-11.69,4.316-11.69,9.172,0,.18-.18,5.036,0,6.295,0,.719-.18.18-1.259.36h-.36a2.483,2.483,0,0,0-2.338,1.8,30.235,30.235,0,0,0,1.619,5.755c.54.9,1.259,1.079,1.978,1.619a1.554,1.554,0,0,1,.54,1.079,8.8,8.8,0,0,0,3.057,4.5c.719.719,5.036,5.215,8.812,5.036s8.093-4.316,8.812-5.036a12.024,12.024,0,0,0,2.877-4.5,1.537,1.537,0,0,1,.54-1.079c.719-.54,1.439-.719,1.978-1.619a30.236,30.236,0,0,0,1.619-5.755A2.9,2.9,0,0,0,84.814,52.326Z" transform="translate(23.631 8.281)"/><path class="g" d="M71.286,73.148c-2.518,0-5.575-1.8-8.812-5.036l-.18-.18a9.8,9.8,0,0,1-3.057-4.856,1.374,1.374,0,0,0-.36-.9.934.934,0,0,0-.719-.36c-.54-.36-1.079-.54-1.439-1.439A36.41,36.41,0,0,1,55.1,54.444v-.36a3.526,3.526,0,0,1,2.877-2.338h1.259V45.991c0-5.215,5.4-9.532,12.229-9.891h.36c6.834.18,12.229,4.5,12.229,9.891v5.935h1.079a2.886,2.886,0,0,1,2.878,2.338v.36a36.411,36.411,0,0,1-1.619,5.935A2.934,2.934,0,0,1,84.774,62c-.18.18-.36.18-.719.36a.934.934,0,0,0-.36.719,11.228,11.228,0,0,1-3.057,5.036c-1.259,1.079-5.4,5.036-9.172,5.215C71.646,73.148,71.466,73.148,71.286,73.148Zm-14.927-18.7c.36,1.8.9,3.777,1.439,5.575a1.651,1.651,0,0,0,1.079.719c.18.18.54.36.719.54a1.889,1.889,0,0,1,.9,1.619,10.321,10.321,0,0,0,2.7,4.136l.18.18c3.057,3.237,6.115,4.856,8.093,4.676,2.7-.18,6.115-2.7,8.273-4.856a9.805,9.805,0,0,0,2.7-4.316,1.834,1.834,0,0,1,.9-1.439c.36-.18.54-.36.9-.54a1.75,1.75,0,0,0,1.079-.9,47.244,47.244,0,0,0,1.439-5.4,1.727,1.727,0,0,0-1.619-1.259H84.055c-.36,0-.719.18-.9-.18a1.162,1.162,0,0,1-.36-.9V45.991c0-4.676-4.856-8.453-10.97-8.632h-.18c-6.115.18-10.97,3.957-10.97,8.632v6.115c0,.18,0,.719-.36.9a1.621,1.621,0,0,1-.9.18H58.337A2.024,2.024,0,0,0,56.359,54.444Z" transform="translate(23.312 7.962)"/><path class="o" d="M69.889,58.093a2.888,2.888,0,0,0,1.978-.9v-.18h-.18a2.608,2.608,0,0,1-3.6,0h0v.18h0A1.984,1.984,0,0,0,69.889,58.093ZM67.371,47.842l.54-.9a12.4,12.4,0,0,0-6.295.18l.54.9A10.27,10.27,0,0,1,67.371,47.842Zm10.251,0,.54-.9a12.4,12.4,0,0,0-6.295.18l.54.9A10.2,10.2,0,0,1,77.622,47.842ZM64.494,49.281c-.54,0-.9.36-1.259.9h.18a.963.963,0,0,1,.9.9c0,.54-.36.54-.9.54-.18,0-.18,0-.36-.18A1.351,1.351,0,0,0,64.314,52.7a1.7,1.7,0,0,0,1.8-1.8,1.509,1.509,0,0,0-1.619-1.619Zm10.611,0a1.282,1.282,0,0,0-1.079.54h.18c.54,0,.719.54.719.9a.774.774,0,0,1-.719.719c-.18,0-.54-.18-.54-.36a1.376,1.376,0,1,0,2.7.54V50.9c.36-.719-.36-1.619-1.259-1.619Zm.54,10.97c.18,0,.18-.18,0,0h0a.176.176,0,0,0-.18-.18,10.722,10.722,0,0,1-11.33,0h-.18v.18a9.989,9.989,0,0,0,11.69,0ZM58.739,46.4a31.21,31.21,0,0,1,2.518-6.834,1.45,1.45,0,0,0-1.619-.54A19,19,0,0,0,57.3,48.382a19.522,19.522,0,0,0,.719,4.5C58.559,50.54,58.379,48.382,58.739,46.4Zm22.121,0a24.121,24.121,0,0,0-2.518-6.834,1.45,1.45,0,0,1,1.619-.54A19,19,0,0,1,82.3,48.382a19.522,19.522,0,0,1-.719,4.5C81.219,50.54,81.219,48.382,80.86,46.4Zm-9.532,19.6h0a.249.249,0,0,0,0-.36H68.45a.176.176,0,0,0-.18.18h0c0,.18,0,.18.18.18h2.877Z" transform="translate(25.068 10.247)"/><path class="g" d="M75.759,100.844c-10.071,0-16.366-1.978-24.1-7.194a.934.934,0,0,1-.36-.719,70.14,70.14,0,0,1,.719-10.611,7.9,7.9,0,0,1,4.136-5.4,6.091,6.091,0,0,1,2.7-1.079l7.913-2.877a1.266,1.266,0,0,0,.9-.719,18.732,18.732,0,0,0,.18-1.978,19.048,19.048,0,0,1-2.158-1.8,9.455,9.455,0,0,1-3.237-5.036.934.934,0,0,0-.36-.719c-.18-.18-.36-.18-.54-.36a4.094,4.094,0,0,1-1.619-1.439A19.3,19.3,0,0,1,58.314,54.8v-.36a3.455,3.455,0,0,1,3.237-2.518h.36V46.351c0-5.575,5.575-9.891,12.589-10.251h.36c7.014.18,12.589,4.676,12.589,10.251v5.755h.719a3.455,3.455,0,0,1,3.237,2.518v.36A18.126,18.126,0,0,1,89.786,61.1a4.58,4.58,0,0,1-1.619,1.619c-.18.18-.36.18-.719.36-.18.18-.18.36-.36.54a11.2,11.2,0,0,1-3.237,5.215c-.719.719-1.619,1.259-2.338,1.978a6.118,6.118,0,0,0,.18,1.8c.18.18.36.54.719.54.36.18,8.273,3.057,9.712,3.6l.9.36A5.772,5.772,0,0,1,97.34,82.32h0s.36,7.733.719,12.409a.989.989,0,0,1-.54.9,51.6,51.6,0,0,1-17.984,5.036C78.456,100.664,77.018,100.844,75.759,100.844ZM53.1,92.391c8.093,5.4,14.927,7.014,26.617,6.474a49.415,49.415,0,0,0,16.725-4.676c-.36-4.676-.719-11.51-.719-11.87a4.041,4.041,0,0,0-3.057-3.6l-1.079-.36c-1.439-.54-9.532-3.6-9.532-3.6a2.7,2.7,0,0,1-1.8-1.619,8.413,8.413,0,0,1-.36-2.877.934.934,0,0,1,.36-.719,13.581,13.581,0,0,0,2.518-1.978,9.227,9.227,0,0,0,2.7-4.136,2.486,2.486,0,0,1,.9-1.619c.36-.18.54-.36.9-.54.54-.36.719-.36.9-.719a17.286,17.286,0,0,0,1.439-5.215,1.865,1.865,0,0,0-1.439-1.079H87.089a1.665,1.665,0,0,1-1.259-.18,1.52,1.52,0,0,1-.36-1.079V46.711c0-4.5-4.856-8.273-10.791-8.453H74.5c-5.935.18-10.791,3.957-10.791,8.453v6.115c0,.36,0,.9-.36,1.079-.36.36-.9.18-1.079.18H61.191a1.507,1.507,0,0,0-1.439,1.079,20.027,20.027,0,0,0,1.439,5.4,1.266,1.266,0,0,0,.9.719,3.931,3.931,0,0,0,.9.54,2.5,2.5,0,0,1,.9,1.8,9.738,9.738,0,0,0,2.7,3.957,12.766,12.766,0,0,0,2.518,1.8.934.934,0,0,1,.36.719c0,1.079-.18,2.338-.18,2.878a2.966,2.966,0,0,1-2.158,1.978l-7.733,2.878a9.034,9.034,0,0,0-2.338.9,6.353,6.353,0,0,0-3.237,3.957A56.054,56.054,0,0,0,53.1,92.391Z" transform="translate(20.278 7.962)"/><path class="p" d="M84.2,49.877l-1.079-.18.18-1.619-.719.36-.54-.9,1.619-.719h.54a.661.661,0,0,1,.18.54Zm-27.336-.36L56.5,47a.661.661,0,0,1,.18-.54.337.337,0,0,1,.54,0l1.619.719-.36,1.079-.719-.36.18,1.619Z" transform="translate(24.43 16.126)"/><path class="g" d="M57.86,55.531h0a.387.387,0,0,1-.36-.36l.18-9.712a.387.387,0,0,1,.36-.36h0a.387.387,0,0,1,.36.36l-.18,9.712A.387.387,0,0,1,57.86,55.531Zm23.739,0a.387.387,0,0,1-.36-.36l-.18-9.712a.387.387,0,0,1,.36-.36h0a.387.387,0,0,1,.36.36l.18,9.712a.387.387,0,0,1-.36.36Z" transform="translate(25.228 15.148)"/><path class="o" d="M82.684,50.038a14.689,14.689,0,0,0-2.158-10.251,16.749,16.749,0,0,0-19.783-1.079,12.023,12.023,0,0,0-3.417,11.33,49.652,49.652,0,0,0,1.079,7.194c.18-2.338.18-7.014.719-9.172a19.134,19.134,0,0,1,1.619-4.5c3.057-3.417,15.646-3.237,18.884,0a43.4,43.4,0,0,1,1.439,4.5c.54,2.158.54,7.014.9,9.172C82.324,54.714,82.5,52.376,82.684,50.038Z" transform="translate(24.862 7.872)"/><path class="b" d="M68.131,45.63c-2.158-2.7-10.431-.719-10.431-.719a6.39,6.39,0,0,1,.36,1.8c.54,0,.719,1.439.719,1.978.36,2.338,1.978,4.136,5.4,4.136a4.224,4.224,0,0,0,4.316-4.136h0A5.773,5.773,0,0,0,68.131,45.63Zm-.36,3.057a3.607,3.607,0,0,1-3.6,3.6h-.54c-3.417,0-4.136-3.057-4.136-4.856a2.136,2.136,0,0,1,1.8-2.158h2.158c2.518,0,3.6.54,3.957,1.079a10.526,10.526,0,0,1,.36,2.338Zm2.7-.18a4.376,4.376,0,0,0,4.316,4.316h.18c3.417,0,5.036-1.8,5.4-4.136,0-.54.18-1.8.719-1.978.18-.54.18-1.259.36-1.8,0,0-8.273-1.8-10.431.719A8.146,8.146,0,0,0,70.469,48.507Zm1.259-2.158c.36-.54,1.439-1.079,3.957-1.079h2.158a2.136,2.136,0,0,1,1.8,2.158c0,1.8-.719,4.856-4.136,4.856h-.54a3.607,3.607,0,0,1-3.6-3.6A3.429,3.429,0,0,1,71.728,46.349Z" transform="translate(25.388 14.438)"/><path class="b" d="M66.7,46.759a2.9,2.9,0,0,0-1.619-.54,2.042,2.042,0,0,0-1.439.54c-.18-.36-.36-.9-.54-1.259h3.777Z" transform="translate(29.699 15.467)"/><path class="q" d="M84.2,44.295a3.2,3.2,0,0,1-1.439,1.259,1.363,1.363,0,0,0-.36-.719,2.03,2.03,0,0,0,.54-1.978,2.793,2.793,0,0,0-3.057-2.338h0V39.439a3.463,3.463,0,0,0-3.957-2.877,1.374,1.374,0,0,0-.9.36v-.18a4.233,4.233,0,0,0-4.856-3.417,3.844,3.844,0,0,0-3.057,2.158,6.694,6.694,0,0,0-3.237-.36,4.8,4.8,0,0,0-4.5,5.036v.36a2.385,2.385,0,0,0-1.079,1.8,3.406,3.406,0,0,0,3.237,3.6,3.955,3.955,0,0,0,2.518-.36,6.162,6.162,0,0,0,6.654,3.057,8.078,8.078,0,0,0,3.237-1.259,3.527,3.527,0,0,0,3.6,1.619,2.556,2.556,0,0,0,1.079-.36,2.832,2.832,0,0,0,2.338.719,2.22,2.22,0,0,0,1.439-.719C83.125,48.072,84.2,46.992,84.2,44.295Z" transform="translate(25.86 5.702)"/></svg>