<svg xmlns="http://www.w3.org/2000/svg" viewBox="0 0 100 100"><path fill="#fff" d="M80.8 31.8A0.7 0.7 0 1 0 80.8 33.2A0.7 0.7 0 1 0 80.8 31.8Z"/><path fill="#f1bc19" d="M78.1 12.5A0.9 0.9 0 1 0 78.1 14.3A0.9 0.9 0 1 0 78.1 12.5Z"/><path fill="#cee1f4" d="M50.9 13.200000000000003A37.5 37.5 0 1 0 50.9 88.2A37.5 37.5 0 1 0 50.9 13.200000000000003Z"/><path fill="#f1bc19" d="M83.6 11.6A4 4 0 1 0 83.6 19.6A4 4 0 1 0 83.6 11.6Z"/><path fill="#78a0cf" d="M13.4 27.3A1.9 1.9 0 1 0 13.4 31.099999999999998A1.9 1.9 0 1 0 13.4 27.3Z"/><path fill="#fbcd59" d="M78.6 75.3A1.9 1.9 0 1 0 78.6 79.10000000000001 1.9 1.9 0 1 0 78.6 75.3zM26.1 72.1A4 4 0 1 0 26.1 80.1 4 4 0 1 0 26.1 72.1z"/><path fill="#78a0cf" d="M27.2 84.69999999999999A1.9 1.9 0 1 0 27.2 88.5A1.9 1.9 0 1 0 27.2 84.69999999999999Z"/><path fill="#fff" d="M58.6 77.7A2.6 2.6 0 1 0 58.6 82.89999999999999A2.6 2.6 0 1 0 58.6 77.7Z"/><path fill="#cbc9bc" d="M69.4,27.4V32c0,0.4-0.3,0.8-0.8,0.8h-1.1c-0.4,0-0.8-0.3-0.8-0.8v-4.6c0-0.4,0.3-0.8,0.8-0.8h1.1 C69.1,26.7,69.4,27,69.4,27.4z"/><path fill="#472b29" d="M68.6,33.2h-1.1c-0.6,0-1.1-0.5-1.1-1.1v-4.6c0-0.6,0.5-1.1,1.1-1.1h1.1c0.6,0,1.1,0.5,1.1,1.1V32 C69.8,32.7,69.3,33.2,68.6,33.2z M67.5,27.1c-0.2,0-0.4,0.2-0.4,0.4V32c0,0.2,0.2,0.4,0.4,0.4h1.1c0.2,0,0.4-0.2,0.4-0.4v-4.6 c0-0.2-0.2-0.4-0.4-0.4H67.5z"/><path fill="#e1e0d8" d="M38.1,20.1h24.1c2.8,0,5,2.2,5,5v52.1c0,2.8-2.2,5-5,5H38.1c-2.8,0-5-2.2-5-5V25.1 C33.1,22.4,35.3,20.1,38.1,20.1z"/><path fill="#472b29" d="M62.2,82.7H38.1c-3,0-5.5-2.5-5.5-5.5V25.1c0-3,2.5-5.5,5.5-5.5h24.1c3,0,5.5,2.5,5.5,5.5v52.1 C67.7,80.2,65.2,82.7,62.2,82.7z M38.1,20.6c-2.5,0-4.5,2-4.5,4.5v52.1c0,2.5,2,4.5,4.5,4.5h24.1c2.5,0,4.5-2,4.5-4.5V25.1 c0-2.5-2-4.5-4.5-4.5H38.1z"/><path fill="#c5def0" d="M63.7 35.8L63.7 71.7 37.5 71.7 37.5 63.8 37.5 55.1 37.5 28 60.2 28 63.7 28z"/><path fill="#472b29" d="M37 55c-.2 0-.4-.2-.4-.4V27.5c0-.2.2-.4.4-.4h22.7c.2 0 .4.2.4.4s-.2.4-.4.4H37.4v26.7C37.4 54.9 37.2 55 37 55zM63.3 71.6H37c-.2 0-.4-.2-.4-.4v-7.9c0-.2.2-.4.4-.4s.4.2.4.4v7.5h25.5V35.4c0-.2.2-.4.4-.4s.4.2.4.4v35.8C63.6 71.5 63.5 71.6 63.3 71.6z"/><path fill="#cbc9bc" d="M49.7 73.89999999999999A2.2 2.2 0 1 0 49.7 78.3A2.2 2.2 0 1 0 49.7 73.89999999999999Z"/><path fill="#472b29" d="M49.7 78.6c-1.4 0-2.6-1.2-2.6-2.6 0-1.4 1.2-2.6 2.6-2.6s2.6 1.2 2.6 2.6C52.3 77.5 51.1 78.6 49.7 78.6zM49.7 74.3c-1 0-1.8.8-1.8 1.8s.8 1.8 1.8 1.8 1.8-.8 1.8-1.8S50.7 74.3 49.7 74.3zM46.6 23.6h7.1c.2 0 .4.2.4.4v.1c0 .2-.2.4-.4.4h-7.1c-.2 0-.4-.2-.4-.4V24C46.2 23.8 46.4 23.6 46.6 23.6zM63.3 30.5c-.2 0-.4-.2-.4-.4v-2.6c0-.2.2-.4.4-.4s.4.2.4.4v2.6C63.6 30.4 63.5 30.5 63.3 30.5zM63.3 32.3c-.1 0-.2 0-.3-.1-.1-.1-.1-.2-.1-.3s0-.2.1-.3c.1-.1.4-.1.5 0 .1.1.1.2.1.3s0 .2-.1.3c0 0-.1.1-.1.1C63.4 32.3 63.3 32.3 63.3 32.3zM37 62c-.2 0-.4-.2-.4-.4v-1.8c0-.2.2-.4.4-.4s.4.2.4.4v1.8C37.4 61.9 37.2 62 37 62z"/><path fill="#fdfcef" d="M48.6,46c0-5-5.4-9-12-9s-12.1,4-12.1,9s5.4,9,12.1,9H38c1.7,1.6,3.9,2.7,6.2,3 c0.4,0,0.7-0.2,0.7-0.6c0-0.1,0-0.2,0-0.4c-0.6-1.3-0.9-2.6-0.9-4l0,0C46.9,51.3,48.6,48.8,48.6,46"/><path fill="#472b29" d="M44.3,58.5c-0.1,0-0.1,0-0.2,0c-2.4-0.3-4.6-1.4-6.4-3h-1.3C29.6,55.5,24,51.2,24,46 s5.6-9.5,12.6-9.5c6.9,0,12.5,4.3,12.5,9.5l0,0c0,2.9-1.6,5.5-4.5,7.3c0,1.2,0.3,2.4,0.8,3.5c0.1,0.2,0.1,0.4,0.1,0.6 c0,0.3-0.2,0.6-0.4,0.8C44.8,58.4,44.6,58.5,44.3,58.5z M36.5,37.5C30.2,37.5,25,41.3,25,46s5.2,8.5,11.6,8.5H38 c0.1,0,0.2,0,0.3,0.1c1.7,1.6,3.7,2.5,6,2.9c0.1,0,0.2-0.1,0.2-0.1c-0.6-1.4-0.9-2.8-0.9-4.3c0-0.2,0.1-0.3,0.2-0.4 c2.7-1.6,4.3-4.1,4.3-6.6c0,0,0,0,0,0C48.1,41.3,42.9,37.5,36.5,37.5z M49.1,46L49.1,46L49.1,46z"/><path fill="#f1bc19" d="M40.2,48.5l-0.4-3.2c0-1.9-1.5-3.4-3.4-3.4h-0.3c-1.9,0-3.4,1.5-3.4,3.4l-0.4,3.2 c-0.4,0-0.7,0.3-0.7,0.7s0.3,0.7,0.7,0.7h7.8c0.4,0,0.7-0.3,0.7-0.7S40.6,48.5,40.2,48.5z"/><path fill="#472b29" d="M40.2,50.2h-7.8c-0.6,0-1-0.4-1-1c0-0.5,0.3-0.8,0.7-1l0.3-3c0-2,1.7-3.7,3.7-3.7h0.3 c2,0,3.7,1.7,3.7,3.7l0.3,3c0.4,0.1,0.7,0.5,0.7,1C41.2,49.8,40.7,50.2,40.2,50.2z M36.1,42.2c-1.7,0-3.1,1.4-3.1,3.1l-0.4,3.3 c0,0.2-0.1,0.3-0.3,0.3c-0.2,0-0.4,0.2-0.4,0.4c0,0.2,0.2,0.4,0.4,0.4h7.8c0.2,0,0.4-0.2,0.4-0.4c0-0.2-0.2-0.4-0.4-0.4 c-0.2,0-0.3-0.1-0.3-0.3l-0.4-3.2c0-1.7-1.4-3.1-3.1-3.1H36.1z"/><path fill="#ce942b" d="M36.9,41.8c-0.1-0.4-0.4-0.6-0.8-0.5c-0.3,0-0.5,0.3-0.5,0.5H36.9z"/><path fill="#472b29" d="M36.9,42h-1.3c-0.1,0-0.1,0-0.2-0.1s-0.1-0.1,0-0.2c0.1-0.4,0.3-0.6,0.7-0.7 c0.5-0.1,0.9,0.2,1,0.7c0,0.1,0,0.1,0,0.2S37,42,36.9,42z M35.9,41.6h0.7c-0.1-0.1-0.3-0.2-0.4-0.1C36.1,41.5,36,41.5,35.9,41.6z"/><path fill="#ce942b" d="M35,50c0.1,0.7,0.6,1.2,1.3,1.2c0.6,0,1.2-0.5,1.3-1.2H35z"/><path fill="#472b29" d="M36.3 51.4c-.8 0-1.4-.6-1.5-1.3 0-.1 0-.1 0-.2 0 0 .1-.1.1-.1h2.6c.1 0 .1 0 .1.1 0 0 .1.1 0 .2C37.7 50.8 37.1 51.3 36.3 51.4 36.3 51.4 36.3 51.4 36.3 51.4zM35.2 50.2c.1.5.6.8 1.1.8 0 0 0 0 0 0 .5 0 .9-.3 1-.8H35.2zM38.9 48.8h-.5c-.1 0-.2-.1-.2-.2s.1-.2.2-.2h.5c.1 0 .2.1.2.2S39 48.8 38.9 48.8z"/><path fill="#472b29" d="M38,48.8h-0.1c-0.1,0-0.2-0.1-0.2-0.2s0.1-0.2,0.2-0.2H38c0.1,0,0.2,0.1,0.2,0.2S38.1,48.8,38,48.8 z"/><path fill="#472b29" d="M37.5,48.8h-5.2c-0.1,0-0.2-0.1-0.2-0.2s0.1-0.2,0.2-0.2h5.2c0.1,0,0.2,0.1,0.2,0.2 S37.6,48.8,37.5,48.8z"/><path fill="#fff" d="M23.5 68.5A0.9 0.9 0 1 0 23.5 70.30000000000001A0.9 0.9 0 1 0 23.5 68.5Z"/><path fill="#f1bc19" d="M85.3 30.200000000000003A0.9 0.9 0 1 0 85.3 32A0.9 0.9 0 1 0 85.3 30.200000000000003Z"/><path fill="#fff" d="M78.1 66.5A1.8 1.8 0 1 0 78.1 70.1A1.8 1.8 0 1 0 78.1 66.5Z"/><path fill="#895f3f" d="M76.5,61.7c-0.1-1.2-0.9-2.2-2.1-2.5l-0.2-0.1L73.9,59c-0.8-0.3-5.4-2-5.4-2 c-0.3-0.1-0.6-0.3-0.8-0.7c-0.2-0.6-0.2-1.2-0.2-1.8c-1,0.3-2.1,0.6-3.1,0.9c-1.2,0.1-3.7-1.4-3.7-1.4s-0.1,1.9-0.1,2.3 c-0.1,0.4-0.4,0.6-0.8,0.7l-4.4,1.6c-1.6,0.4-2.9,1.6-3.3,3.1c0,0-0.3,2-0.3,2.1c0,0.3-0.1,0.6-0.1,0.9c4.8,3.3,8.7,4.2,15.3,3.9 c3.4-0.3,6.7-1.3,9.8-2.8C76.8,63.2,76.5,61.7,76.5,61.7z"/><path fill="#fdfcef" d="M68.6,57.4L68,57.2c-0.1,0-0.2-0.1-0.3-0.2c-1.1,0.4-1,0.9-2.3,0.9c0.5,0-0.5-0.3,0,0 c-1.9,0.2-4,0.6-5.2-0.8c-0.1,0-0.1,0.1-0.2,0.1l-0.6,0.2h-0.2c0.9,2.6,3.1,11.7,4,14.2h2.1c1.1-2.3,3.7-11.4,4.6-13.8L68.6,57.4z"/><path fill="#fbcd59" d="M63.1,60.6L62,58.1h4.5l-1.2,2.5c-0.3,0.6-1.1,0.9-1.7,0.5C63.4,61,63.2,60.8,63.1,60.6z"/><path fill="#fbcd59" d="M65.2,61.5l0.6,9.8l-3.1,0.1l0.8-9.9C64,60.6,64.7,60.6,65.2,61.5z"/><path fill="#e1e0d8" d="M60.9,56.3l-1.1,0.8l2.4,3.7l2.2-2.9C64.4,58,61,57.1,60.9,56.3z"/><path fill="#e1e0d8" d="M67.6,56.3l1.1,0.8l-2.4,3.7L64,58C64,58,67.4,57.1,67.6,56.3z"/><path fill="#78a0cf" d="M52.3 60.7c.7-.9 1.6-1.6 2.7-2l.9-.3 0 0 3.6-1.4c.9 2.4 3.1 12.4 4.2 14.7-2 0-3.9-.2-5.8-.7-2.2-.9-4.3-2-6.3-3.3C51.7 67.1 51.5 62.6 52.3 60.7zM76.2 60.2c-.3-.6-.7-.7-1.4-.9L73.9 59l0 0-5.1-1.7c-.9 2.4-3.3 11.9-4.1 14.4 2.4.1 4.7-.2 7-.8 3.9-1.1 5.5-2.1 5.5-2.2C77 68.2 77 62.1 76.2 60.2z"/><path fill="#5d87af" d="M56 70.3c-.2 0-.3-.2-.3-.3v-2.4c0-.2.2-.3.3-.3s.3.2.3.3V70C56.3 70.1 56.2 70.3 56 70.3zM72.3 70.7c-.2 0-.3-.2-.3-.3v-2.9c0-.2.2-.3.3-.3s.3.2.3.3v2.9C72.6 70.6 72.5 70.7 72.3 70.7z"/><path fill="#a3754f" d="M71.8,45.3h-0.2c-0.6,0-0.8,0.2-0.7-0.2c0-0.7,0-3.3,0-3.5c0-2.8-2.9-5-6.5-5.1h-0.2 c-3.6,0.1-6.5,2.4-6.5,5.1c0,0.1-0.1,2.8,0,3.5c0,0.4-0.1,0.1-0.7,0.2h-0.2c-0.6,0-1.1,0.4-1.3,1c0.2,1.1,0.5,2.2,0.9,3.2 c0.3,0.5,0.7,0.6,1.1,0.9c0.2,0.2,0.3,0.4,0.3,0.6c0.3,1,0.9,1.9,1.7,2.5c0.4,0.4,2.8,2.9,4.9,2.8s4.5-2.4,4.9-2.8 c0.7-0.7,1.3-1.6,1.6-2.5c0-0.3,0.2-0.5,0.3-0.6c0.4-0.3,0.8-0.4,1.1-0.9c0.4-1,0.7-2.1,0.9-3.2C72.9,45.7,72.4,45.3,71.8,45.3z"/><path fill="#472b29" d="M64.1,56.7c-1.4,0-3.1-1-4.9-2.8l-0.1-0.1c-0.8-0.7-1.4-1.6-1.7-2.7c0-0.2-0.1-0.4-0.2-0.5 c-0.1-0.1-0.2-0.2-0.4-0.2c-0.3-0.2-0.6-0.3-0.8-0.8c-0.4-1.1-0.7-2.2-0.9-3.3l0-0.1l0-0.1c0.2-0.7,0.9-1.2,1.6-1.3H57 c0.1,0,0.3,0,0.4,0c0-0.7,0-2,0-3l0-0.2c0-2.9,3-5.3,6.8-5.5l0.2,0c3.8,0.1,6.8,2.5,6.8,5.5v3.3c0.1,0,0.2,0,0.4,0h0.2 c0.8,0,1.4,0.5,1.6,1.3l0,0.1l0,0.1c-0.2,1.1-0.5,2.2-0.9,3.3c-0.3,0.5-0.6,0.7-0.9,0.8c-0.1,0.1-0.2,0.1-0.4,0.2 c-0.1,0.1-0.2,0.2-0.2,0.4c-0.3,1.1-0.9,2-1.7,2.8c-0.7,0.6-3,2.8-5.1,2.9C64.3,56.7,64.2,56.7,64.1,56.7z M55.8,46.3 c0.2,1,0.5,2.1,0.8,3.1c0.1,0.2,0.3,0.3,0.6,0.4c0.1,0.1,0.3,0.2,0.4,0.3c0.3,0.2,0.5,0.5,0.5,0.9c0.3,0.8,0.8,1.7,1.5,2.3 l0.1,0.1c1.7,1.8,3.4,2.7,4.5,2.6c1.5-0.1,3.4-1.5,4.6-2.7c0.7-0.6,1.2-1.5,1.5-2.4c0-0.3,0.2-0.6,0.5-0.8 c0.2-0.1,0.3-0.2,0.5-0.3c0.3-0.1,0.4-0.2,0.6-0.5c0.3-0.9,0.6-2,0.8-3c-0.1-0.4-0.5-0.7-0.9-0.7h-0.2c-0.2,0-0.3,0-0.4,0 c-0.2,0-0.4,0.1-0.5-0.1c-0.2-0.2-0.2-0.4-0.2-0.5v-3.4c0-2.6-2.7-4.7-6.1-4.8l-0.1,0c-3.4,0.1-6.1,2.2-6.1,4.8l0,0.2 c0,1.8,0,2.8,0,3.2c0,0.1,0,0.4-0.2,0.5c-0.2,0.1-0.3,0.1-0.5,0.1c-0.1,0-0.2,0-0.4,0l-0.2,0C56.3,45.6,56,45.9,55.8,46.3z"/><path fill="#512c2b" d="M64.3 49.6c.4 0 .8-.2 1.1-.5 0 0 0-.1 0-.1 0 0 0 0 0 0l0 0c0 0-.1 0-.1 0 0 0 0 0 0 0-.3.3-.6.4-1 .4-.4 0-.7-.1-1-.4h0l0 0c0 0 0 .1 0 .1 0 0 0 0 0 0C63.5 49.4 63.8 49.6 64.3 49.6zM62.9 43.9l.3-.5c-1.2-.3-2.4-.2-3.5.1L60 44C60.9 43.7 62 43.7 62.9 43.9zM68.6 43.9l.3-.5c-1.2-.3-2.4-.2-3.5.1l.3.5C66.6 43.7 67.6 43.7 68.6 43.9zM61.3 44.7c-.3 0-.5.2-.7.5h.1c.2 0 .5.2.5.5S61 46 60.7 46c-.1 0-.1 0-.2-.1 0 .4.4.7.7.7.6 0 1-.4 1-1S61.8 44.7 61.3 44.7L61.3 44.7zM67.2 44.7c-.2 0-.5.1-.6.3 0 0 .1 0 .1 0 .3 0 .4.3.4.5 0 .2-.2.4-.4.4-.1 0-.3-.1-.3-.2-.1.4.2.8.6.9.4.1.8-.2.9-.6 0-.1 0-.2 0-.4C68.1 45.2 67.7 44.7 67.2 44.7 67.2 44.7 67.2 44.7 67.2 44.7zM67.5 50.8C67.6 50.8 67.6 50.7 67.5 50.8L67.5 50.8c0-.1-.1-.1-.1-.1-2 1.2-4.4 1.2-6.3 0l0 0c0 0 0 0-.1 0 0 0 0 .1 0 .1C63 52.2 65.6 52.2 67.5 50.8L67.5 50.8zM58.1 43.1c.3-1.3.8-2.6 1.4-3.8-.2-.3-.6-.4-.9-.3-.9 1.6-1.3 3.4-1.3 5.2 0 .8.2 1.7.4 2.5C58 45.4 57.9 44.2 58.1 43.1zM70.4 43.1c-.3-1.3-.7-2.6-1.4-3.8.2-.3.6-.4.9-.3.9 1.6 1.3 3.4 1.3 5.2 0 .8-.2 1.7-.4 2.5C70.6 45.4 70.6 44.2 70.4 43.1zM65.1 54C65.1 54 65.2 54 65.1 54c.1-.1 0-.2 0-.2 0 0 0 0 0 0h-1.6c0 0-.1 0-.1.1 0 0 0 0 0 0 0 .1 0 .1.1.1H65.1z"/><path fill="#472b29" d="M64.9,72.1c-5.6,0-9.1-1.1-13.4-4c-0.1-0.1-0.2-0.2-0.2-0.4c0-2,0.1-3.9,0.4-5.9 c0.3-1.3,1.1-2.4,2.3-3c0.4-0.3,0.9-0.5,1.5-0.6l4.4-1.6c0.3-0.1,0.4-0.2,0.5-0.4c0-0.1,0.1-0.6,0.1-1.1c-0.4-0.3-0.8-0.6-1.2-1 c-0.9-0.7-1.5-1.7-1.8-2.8c0-0.2-0.1-0.3-0.2-0.4c-0.1-0.1-0.2-0.1-0.3-0.2c-0.3-0.2-0.7-0.4-0.9-0.8c-0.5-1.1-0.8-2.3-0.9-3.4 c0-0.1,0-0.1,0-0.2c0.2-0.8,1-1.4,1.8-1.4H57c0.1,0,0.1,0,0.2,0c0-0.7,0-1.9,0-2.9l0-0.2c0-3.1,3.1-5.5,7-5.7l0.2,0 c3.9,0.1,7,2.6,7,5.7V45c0.1,0,0.2,0,0.2,0h0.2c0.8,0,1.6,0.6,1.8,1.4c0,0.1,0,0.1,0,0.2c-0.1,1.2-0.4,2.3-0.9,3.4 c-0.3,0.5-0.6,0.7-0.9,0.9c-0.1,0.1-0.2,0.1-0.4,0.2c-0.1,0.1-0.1,0.2-0.2,0.3c-0.3,1.2-1,2.1-1.8,2.9c-0.4,0.4-0.9,0.7-1.3,1.1 c0,0.3,0,0.7,0.1,1c0.1,0.1,0.2,0.3,0.4,0.3c0.2,0.1,4.6,1.7,5.4,2l0.5,0.2c1.3,0.3,2.3,1.5,2.4,2.9c0,0,0,0,0,0 c0,0,0.2,4.3,0.4,6.9c0,0.2-0.1,0.4-0.3,0.5c-3.1,1.5-6.5,2.5-10,2.8C66.4,72,65.6,72.1,64.9,72.1z M52.3,67.4 c4.5,3,8.3,3.9,14.8,3.6c3.2-0.3,6.4-1.2,9.3-2.6C76.2,65.8,76,62,76,61.8c-0.1-1-0.8-1.8-1.7-2l-0.6-0.2c-0.8-0.3-5.3-2-5.3-2 c-0.5-0.1-0.8-0.5-1-0.9c-0.2-0.6-0.2-1.1-0.2-1.6c0-0.2,0.1-0.3,0.2-0.4c0.5-0.3,1-0.7,1.4-1.1c0.7-0.6,1.2-1.4,1.5-2.3 c0-0.3,0.2-0.6,0.5-0.9c0.2-0.1,0.3-0.2,0.5-0.3c0.3-0.2,0.4-0.2,0.5-0.4c0.4-0.9,0.7-1.9,0.8-2.9c-0.1-0.3-0.4-0.5-0.8-0.6h-0.2 c-0.2,0-0.3,0-0.4,0c-0.2,0-0.4,0.1-0.7-0.1c-0.2-0.2-0.2-0.5-0.2-0.6l0-3.5c0-2.5-2.7-4.6-6-4.7l-0.1,0c-3.3,0.1-6,2.2-6,4.7 l0,0.2c0,1.8,0,2.8,0,3.2c0,0.2,0,0.5-0.2,0.6c-0.2,0.2-0.5,0.1-0.6,0.1c-0.1,0-0.2,0-0.4,0l-0.2,0c-0.3,0-0.7,0.2-0.8,0.6 c0.1,1,0.4,2,0.8,3c0.1,0.2,0.2,0.3,0.5,0.4c0.1,0.1,0.3,0.2,0.5,0.3c0.3,0.3,0.5,0.6,0.5,1c0.3,0.8,0.8,1.6,1.5,2.2 c0.4,0.4,0.9,0.7,1.4,1c0.1,0.1,0.2,0.2,0.2,0.4c0,0.6-0.1,1.3-0.1,1.6c-0.2,0.6-0.7,1-1.2,1.1l-4.3,1.6c-0.5,0.1-0.9,0.3-1.3,0.5 c-0.9,0.5-1.6,1.3-1.8,2.2C52.4,63.7,52.3,65.5,52.3,67.4z"/><path fill="#895d3d" d="M71.9 48.3l-.6-.1.1-.9L71 47.5 70.7 47l.9-.4c.1 0 .2 0 .3 0 .1.1.1.2.1.3L71.9 48.3zM56.7 48.1l-.2-1.4c0-.1 0-.2.1-.3.1-.1.2-.1.3 0l.9.4-.2.6-.4-.2.1.9L56.7 48.1z"/><path fill="#472b29" d="M57.7 50.9C57.7 50.9 57.7 50.9 57.7 50.9c-.1 0-.2-.1-.2-.2l.1-5.4c0-.1.1-.2.2-.2 0 0 0 0 0 0 .1 0 .2.1.2.2l-.1 5.4C57.9 50.8 57.8 50.9 57.7 50.9zM70.9 50.9c-.1 0-.2-.1-.2-.2l-.1-5.4c0-.1.1-.2.2-.2 0 0 0 0 0 0 .1 0 .2.1.2.2l.1 5.4C71.1 50.8 71 50.9 70.9 50.9 70.9 50.9 70.9 50.9 70.9 50.9z"/><path fill="#512c2b" d="M71.3,43.8c0.3-2-0.1-4-1.2-5.7c-3.1-2.6-7.6-2.8-11-0.6c-1.7,1.6-2.4,4-1.9,6.3 c0.1,1.3,0.3,2.7,0.6,4c0.1-1.3,0.1-3.9,0.4-5.1c0.2-0.9,0.5-1.7,0.9-2.5c1.7-1.9,8.7-1.8,10.5,0c0.3,0.8,0.6,1.7,0.8,2.5 c0.3,1.2,0.3,3.9,0.5,5.1C71.1,46.4,71.2,45.1,71.3,43.8z"/><path fill="#f1bc19" d="M63.5 45c-1.2-1.5-5.8-.4-5.8-.4.1.3.2.7.2 1 .3 0 .4.8.4 1.1.2 1.3 1.1 2.3 3 2.3 1.3 0 2.4-1 2.4-2.3 0 0 0 0 0 0C63.8 46.1 63.7 45.5 63.5 45zM63.3 46.7c0 1.1-.9 2-2 2h-.3c-1.9 0-2.3-1.7-2.3-2.7 0-.6.4-1.1 1-1.2.3 0 .7 0 1.2 0 1.4 0 2 .3 2.2.6C63.2 45.8 63.3 46.3 63.3 46.7L63.3 46.7zM64.8 46.6c0 1.3 1.1 2.4 2.4 2.4 0 0 0 0 .1 0 1.9 0 2.8-1 3-2.3 0-.3.1-1 .4-1.1.1-.3.1-.7.2-1 0 0-4.6-1-5.8.4C64.9 45.5 64.8 46.1 64.8 46.6zM65.5 45.4c.2-.3.8-.6 2.2-.6.4 0 .8 0 1.2 0 .6.1 1 .6 1 1.2 0 1-.4 2.7-2.3 2.7h-.3c-1.1 0-2-.9-2-2C65.2 46.2 65.3 45.8 65.5 45.4z"/><path fill="#f1bc19" d="M65.1,46.2c-0.3-0.2-0.6-0.3-0.9-0.3c-0.3,0-0.6,0.1-0.8,0.3c-0.1-0.2-0.2-0.5-0.3-0.7h2.1 L65.1,46.2z"/><path fill="#5e2e2e" d="M72.7,39.4c-0.2,0.3-0.5,0.6-0.8,0.7c0-0.1-0.1-0.3-0.2-0.4c0.3-0.3,0.4-0.7,0.3-1.1 c-0.1-0.8-0.9-1.4-1.7-1.3c0,0,0,0,0,0l0,0c0-0.2,0-0.4,0-0.6c-0.2-1-1.1-1.8-2.2-1.6c-0.2,0-0.4,0.1-0.5,0.2c0,0,0-0.1,0-0.1 c-0.2-1.3-1.5-2.1-2.7-1.9c-0.7,0.1-1.4,0.5-1.7,1.2c-0.6-0.2-1.2-0.3-1.8-0.2c-1.5,0.1-2.6,1.4-2.5,2.8c0,0.1,0,0.1,0,0.2 c-0.3,0.2-0.6,0.6-0.6,1c-0.1,1,0.7,1.9,1.8,2c0.5,0.1,1,0,1.4-0.2c0.7,1.3,2.2,2,3.7,1.7c0.6-0.1,1.2-0.3,1.8-0.7 c0.4,0.7,1.2,1,2,0.9c0.2,0,0.4-0.1,0.6-0.2c0.4,0.3,0.8,0.5,1.3,0.4c0.3,0,0.6-0.2,0.8-0.4C72.1,41.5,72.7,40.9,72.7,39.4z"/></svg>